<svg version="1.1" id="Capa_1" xmlns="http://www.w3.org/2000/svg" x="0" y="0" viewBox="0 0 512 512" style="enable-background:new 0 0 512 512" xml:space="preserve"><style>.st0{fill:#e3eaff}.st1{fill:#fff}.st4{fill:#717175}.st8{fill:#f7f7f8}.st9{fill:#211915}.st32{fill:#d7d8dc}.st55{fill:#fdfaef}.st60{fill:#e5a662}.st62{opacity:.5;fill:#ebb350}</style><switch><g><path class="st32" d="M498.9 451.7v-69.1h-23.6v-51h-22.7v22.7h-18.8v-42.5H403v38l-9.2.3v-48.2h-10.7v-20.5h-6.5v-13.8h-25.1v13.8H345v20.5h-10.7V328l-5 .3-1.4-77.4h-33.2v41.2l-11.6.3v-64.3h-4v-13.6h-35v13.6h-4v86.7h-7.3v-27.1h-6.2v-13.2h-8.9v-38.6h-12.8v38.6H196v13.2h-6.2v45.8h-7.6v-53.1l-90.8.9v119.4l-7.7-89v-15.6H56.1v30.1h-8v-11.1H30.6v22.4H13.1v114.2z"/><path d="M138.6 450.6c3.6-3.1 5.8-6.4 5.3-9.7-1-5.9-9.3-2.1-9.6-6.3-.5-7.4 31.2-5.6 30.1-15.1-1-9.2-24.3 5.9-25.3-.8-.6-4.1 34.6-3.8 35.3-13.1.7-9.3-25.5-.3-30.7-3.1-5.2-2.7 49.7-19.4 44.2-31.6-4.5-10-41 13.4-47.1 11-6-2.3 23.2-22.1 32.2-40.1 9.3-18.7 1.7-28.1-13.1-13.2-14.8 14.9-39.1 43.2-40.1 34.7s15.6-40.1 2.1-37.8c-23.7 4.2-25.7 43.4-33.1 74.1-.8 3.3-8.7-35-18.3-23.5-5 5.9 4.2 49.6 10 74.4h58.1z" style="fill:#aad7c7"/><circle class="st1" cx="265.1" cy="263.1" r="12.6"/><path d="M212.4 170.6s0-.1 0 0c-.4-.1-.7-.2-1-.3-.1 0-.2-.1-.3-.1-.1 0-.2-.1-.4-.1-.1 0-.3-.1-.4-.1-.1 0-.2 0-.4-.1-.1 0-.3-.1-.4-.1-.1 0-.2 0-.3-.1-.1 0-.3 0-.4-.1H84.4c-.6 0-1.1.1-1.7.2-.3 0-.5.1-.8.1-6.9 1.4-12.3 7.2-13 14.4-.1.6-.1 1.1-.1 1.7V435.4c0 7.1 4.5 13.2 10.8 15.5h.1c.3.1.6.2 1 .3.1 0 .2.1.3.1.1 0 .2.1.4.1.1 0 .3.1.4.1.1 0 .2 0 .4.1.1 0 .3.1.4.1.1 0 .2 0 .3.1.1 0 .3 0 .4.1h123.5c.6 0 1.1 0 1.7-.1 7.7-.8 13.9-6.9 14.6-14.7.1-.6.1-1.1.1-1.7V186c0-7.1-4.5-13.2-10.8-15.4z" style="fill:#5b5b5f"/><path style="fill:#99989d" d="M76.7 192h139v237.5h-139z"/><path class="st55" d="m215.7 292-40.1-3.3-1.1-23.5-9.9-.4v-16l51.1 21.9v-4.5l-17-7.3-3.2-66.9h-4.1l3.1 65.1-29.9-12.8v-.5h-1.1l-6.8-2.9V192h-4.1v47.1l-41.5-17.8V192h-8.3v25.8l-26.1-11.2v4.5l26.1 11.2v26.2l-26.1-12.2v4.6l26.1 12.2v15.4l-23.6 29.9-2.5.1v4.1l20.8-.4v28.2l21.7 12-22.7 10-19.7-14.1v5.1l18.6 13.3-4.5 72.8h8.3l2.8-45.2 34.9 12.8-4 32.5h4.2l3.8-31 34.1 12.5-6 18.5h4.3l5.5-17.1 36.9 13.5v-4.4l-35.6-13 10.1-31.3-12.9-7.2c4.5-5.4 14.2-17.2 23.8-29 6.2-7.5 10.9-13.4 14.6-17.9v-6.6c-4.6 5.7-10.5 12.9-16.8 20.7l-21.6-13.8-1.5-30.5 39.9 3.3V292zm-49.1-18.8 2.3 46.8-24.9-21.7v-26.1l22.6 1zm-55.5-47.3 49.4 21.2v17.6l-49.4-2v-36.8zm-26.5 72.4 21.8-27.6 33.4 1.4v25.1l-55.2 1.1zm17 29.6v-25.8l39.5-.8 24 20.9-41.2 18.1-22.3-12.4zm83.7 51.2-9 27.9-74-27.1 1.3-21.6 24.7-10.9 57 31.7zm11-38.7c-7.6 9.3-15.6 19-22.6 27.5L133 345.3l42.1-18.5 21.2 13.6z"/><path style="fill:#a4a1b9" d="M177.1 411 96 382l1.4-26.4 71.2-31.5-28.2-24.1v-30.5l-34.9-1v-27.8h3v24.9l34.9 1.1v32l30.7 26.3-73.8 32.6-1.2 22.4 79 28.2z"/><path d="m99.4 230.9 7.6 15 7.9-14.8c2.4-5.4-1.4-11.6-7.3-11.9h-.6c-5.9.1-9.8 6.2-7.6 11.7zm3.8-3.2c0-2.2 1.8-3.9 4-3.9s3.9 1.8 3.9 4-1.8 3.9-4 3.9-3.9-1.8-3.9-4z" style="fill:#e5b449"/><path d="m169.8 396 7.6 15 7.9-14.8c2.4-5.4-1.4-11.6-7.3-11.9h-.6c-5.9.1-9.8 6.2-7.6 11.7zm3.9-3.1c0-2.2 1.8-3.9 4-3.9s3.9 1.8 3.9 4-1.8 3.9-4 3.9c-2.2-.1-4-1.9-3.9-4z" style="fill:#2f4855"/><path class="st1" d="M175.1 184.5h-58c-.3 0-.6-.3-.6-.6v-1.7c0-.3.3-.6.6-.6h58c.3 0 .6.3.6.6v1.7c.1.4-.2.6-.6.6z"/><path style="opacity:.2;fill:#a4a1b9" d="M76.7 419.5h138.5v10H76.7z"/><g><path class="st4" d="M138.8 418.3s65.6 10.9 66.4 10.4c.8-.5 9.3-37.1 9.3-37.1s-54.3-9.8-55.2-9.8c-.9 0-12.7 9.4-12.8 10.1-.1.6-7.7 26.4-7.7 26.4zM339 427.6c1.6.2 81.1-1.5 81.1-1.5l-6-18.3s-11-16.7-16.8-16.4c-5.8.3-40.5-5.3-46.4-1.2-6 4.1-11.3.8-14.2 10.8-2.8 9.9-5 11-2.8 17s5.1 9.6 5.1 9.6z"/><circle class="st9" cx="172" cy="424.8" r="27.1"/><circle class="st9" cx="172" cy="424.8" r="18.8"/><circle class="st32" cx="172" cy="424.8" r="12.6"/><circle class="st9" cx="380.3" cy="424.8" r="27.1"/><circle class="st9" cx="380.3" cy="424.8" r="18.8"/><circle class="st32" cx="380.3" cy="424.8" r="12.6"/><path d="M442.4 399.1c-2.3-15.1-9.7-18.3-31.6-22.6-24.1-4.8-54.8-20.6-54.8-20.6s-52.3-25.6-65.1-28.5c-12.8-2.9-44.3-2.1-70.7-1.9-26.4.2-42 7.6-55.4 18-13.4 10.5-36.7 18.5-36.7 18.5l-4.2.8c-4.4.8-7.5 4.6-7.5 9v37.4c0 4.2 2.9 7.9 7 9l15.3 4c1.2.2 2.4-.7 2.5-1.9 1.7-15.3 14.9-26.9 30.7-26.9 16.8 0 30.5 13.8 30.5 30.6 0 1.9-.2 3.8-.5 5.6-.3 1.9 1.1 3.6 3 3.6h140.8c2.7 0 4.9-2.4 4.5-5.1-.2-1.3-.3-2.6-.3-4 0-16.6 13.4-30.3 29.9-30.7 17.2-.4 31.2 13.4 31.2 30.5 0 1.1-.1 2.2-.2 3.4-.3 3.1 2.1 5.8 5.2 5.8h20.2c3.7 0 6.7-3 6.7-6.7v-19.6c0-2.6-.1-5.2-.5-7.7z" style="fill:#da9500"/><path class="st55" d="M117.3 376.1H134c1.4 0 2.4 1.5 1.8 2.8l-1.9 4.5c-1.8 4.3-6 7-10.6 7h-6.1c-1.2 0-2.2-1-2.2-2.2v-10c.1-1.1 1.1-2.1 2.3-2.1zM415.9 383.1c9.2 1.4 19.8 10.1 19.8 10.1 2.5 2.7.4 7.1-3.3 6.9l-17.9-1.1c-3.7-.2-6.9-2.8-7.9-6.4-1.8-6-.3-11 9.3-9.5z"/><path class="st60" d="M116.5 410.5c-1.1 0-2 1.1-1.5 2.2 1.2 3 3.8 5.4 7 6.3l17.1 4.5c1.4.2 2.7-.8 2.8-2.2.3-2.9 1-5.7 2-8.3.3-.9-.3-1.8-1.3-1.9l-26.1-.6zM411.2 417.6c-1.3 0-2.3 1.1-2.1 2.4.2 1.4.3 2.9.3 4.4 0 1.3-.1 2.5-.2 3.7-.4 3.5 2.3 6.5 5.8 6.5h22.5c4.1 0 7.4-3.3 7.4-7.4v-5.8c0-1.6-1.3-3-3-3l-30.7-.8z"/><path d="M356.1 364.6c-.3-.2-30.1-16.5-49.8-25.6-19.5-9-41.3-8.1-42.3-8-2.5-.1-54.7-1.2-70.7 3.8-16.2 5-37.2 28-38.1 29l-.2.3 5.7 26.6h.6c16.5-.9 29.1 3.5 36.4 12.7 5.6 7 6.3 14.3 6.3 14.4l.1.6 59.3 1.5h1.4l82.7 1.6v-.7c.4-26.9 8.9-54.9 9-55.2l.2-.6-.6-.4zm-150.8 52.1c-.3-2-1.5-8.3-6.5-14.5-5.3-6.7-16-14.3-37.1-13.3l-5.3-24.7c2.4-2.6 22.3-23.7 37.2-28.3 14.9-4.6 63.2-3.9 69.6-3.8V418l-57.9-1.3zm140.7 3.2-81.3-1.6v-86c3.8-.1 23.3-.2 41 7.9 18.3 8.5 45.2 23.1 49.2 25.3-1.2 4.1-8.4 29.6-8.9 54.4z" style="opacity:.5;fill:#9b4525"/><path class="st62" d="M114.9 412.7c1.2 3 3.8 5.4 7 6.3l17.1 4.5c1.4.2 2.7-.8 2.8-2.2.1-1.1.3-2.2.5-3.3l-27.4-5.3zM409.3 426c0 .7-.1 1.4-.2 2.1-.4 3.5 2.3 6.5 5.8 6.5h22.5c4.1 0 7.4-3.3 7.4-7.4V426h-35.5z"/><path class="st60" d="M351.2 426c0-1.5.1-3 .3-4.5.3-1.8-1.1-3.4-2.9-3.4l-146.4-3.6c-1.6 0-2.7 1.5-2.3 3 .8 2.7 1.2 5.5 1.2 8.4 0 1.9-.2 3.8-.5 5.7-.4 1.9 1.1 3.7 3 3.7h143.3c2.8 0 4.9-2.5 4.6-5.3-.2-1.4-.3-2.7-.3-4z"/><path class="st62" d="M351.2 426c0-.1 0-.1 0 0l-150.1-.1c0 1.9-.2 3.8-.5 5.7-.4 1.9 1.1 3.7 3 3.7h143.3c2.8 0 4.9-2.5 4.6-5.3-.2-1.4-.3-2.7-.3-4z"/><path class="st8" d="M187.4 375.2h-16.8c-.8 0-1.5-.7-1.5-1.5v-.2c0-.8.7-1.5 1.5-1.5h16.8c.8 0 1.5.7 1.5 1.5v.2c0 .8-.7 1.5-1.5 1.5zM288.1 376.8h-16.8c-.8 0-1.5-.7-1.5-1.5v-.2c0-.8.7-1.5 1.5-1.5h16.8c.8 0 1.5.7 1.5 1.5v.2c0 .8-.7 1.5-1.5 1.5zM172.5 367.1l80.9.8s5-.1 5.6-4.8c.7-4.7.6-24.6.6-24.6s-.6-4-4.4-4.1c-2.3 0-21.9-1.4-40.9.9-15.5 1.9-29.9 9-40.7 19.9l-5.7 5.7c0-.1-3.9 6.1 4.6 6.2zM268.7 340.9v20.9c0 2.7 2.1 5 4.7 5.1l63.6 2.6c1.5.1 2.9-.6 3.7-1.8 1.1-1.7 1.3-4.4-4.4-8.2-9.9-6.5-35.1-20.4-44.4-21.8-5.9-.9-13.7-1.2-18.6-1.4-2.5 0-4.6 2-4.6 4.6z"/></g><g><path d="m244.7 272.7 19.4 38.4 20.3-37.9c6-13.9-3.6-29.8-18.8-30.4h-1.4c-15.1.3-25.2 15.9-19.5 29.9zm9.9-7.9c.1-5.5 4.6-10 10.2-9.9 5.5.1 10 4.6 9.9 10.2-.1 5.5-4.6 10-10.2 9.9-5.5-.1-10-4.7-9.9-10.2z" style="fill:#be0811"/></g><path class="st60" d="M13.2 456.6v-4.9h485.6v4.9"/><path class="st0" d="M200 134.6c.7-15 13-26.9 28.2-26.9 5.1 0 9.9 1.4 14 3.7.5-7.4 6.7-13.2 14.2-13.2 6.7 0 12.4 4.7 13.8 11 1.8-.4 3.7-.7 5.6-.7 10.1 0 18.8 6.3 22.3 15.3 2-.8 4.2-1.2 6.5-1.2 5.5 0 10.5 2.5 13.8 6.5 1.8 2.2.2 5.5-2.7 5.5H200zM138.1 102.4v.5H84.9c1.5-5.2 6.3-9 12-9 1.3 0 2.6.2 3.7.6 3.1-6.9 9.9-11.6 17.9-11.6 10.8-.1 19.6 8.7 19.6 19.5zM391.3 86.1v.6h-91.8v-.6c0-9 7.3-16.2 16.2-16.2 1.7 0 3.3.3 4.9.7 4-8.9 12.9-15.2 23.3-15.2 10.8 0 20.1 6.7 23.8 16.2 2.2-1.1 4.7-1.8 7.4-1.8 8.9 0 16.2 7.3 16.2 16.3z"/></g></switch></svg>