<svg version="1.1" id="Capa_1" xmlns="http://www.w3.org/2000/svg" x="0" y="0" viewBox="0 0 512 512" style="enable-background:new 0 0 512 512" xml:space="preserve"><style>.st0{fill:#e3eaff}.st1{fill:#fff}.st11{fill:#ecedef}.st32{fill:#d7d8dc}.st33{fill:#c2c3c8}.st34{fill:#bfd0ff}.st35{fill:#4d4d4d}.st37{fill-rule:evenodd;clip-rule:evenodd;fill:#fff}.st38{fill:#3c3c3b}.st40{fill-rule:evenodd;clip-rule:evenodd;fill:#ecf0f1}</style><switch><g><path style="fill:#d6e0ff" d="M171.5 202h57v232.3h-57z"/><path class="st32" d="M137.7 173.2h63.1v264.1h-63.1z"/><path class="st32" d="M145.4 158.3h47.8v15.8h-47.8z"/><path class="st32" d="M155 142.6h28.5v15.8H155z"/><path class="st11" d="M41.9 164.7h97.8v269.6H41.9z"/><path class="st32" d="M300 144.6h75.5v276.1H300zM402.5 223.9H478v213.3h-75.5z"/><path class="st11" d="M275.8 184.7h67.9v252.5h-67.9z"/><path class="st33" d="M341.7 125.7h95v311.5h-95z"/><path class="st34" d="M285.3 203.6h14.2v21.2h-14.2zM306.9 203.6h14.2v21.2h-14.2zM328.5 203.6h14.2v21.2h-14.2zM285.3 235.4h14.2v21.2h-14.2zM306.9 235.4h14.2v21.2h-14.2zM328.5 235.4h14.2v21.2h-14.2z"/><g><path class="st34" d="M285.3 267.3h14.2v21.2h-14.2zM306.9 267.3h14.2v21.2h-14.2zM328.5 267.3h14.2v21.2h-14.2z"/></g><g><path class="st34" d="M285.3 299.1h14.2v21.2h-14.2zM306.9 299.1h14.2v21.2h-14.2zM328.5 299.1h14.2v21.2h-14.2z"/></g><g><path class="st34" d="M285.3 331h14.2v21.2h-14.2zM306.9 331h14.2v21.2h-14.2zM328.5 331h14.2v21.2h-14.2z"/></g><g><path class="st34" d="M357 203.6h14.2v21.2H357z"/><path class="st1" d="M382.1 203.6h14.2v21.2h-14.2zM406.8 203.6H421v21.2h-14.2zM357 169.3h14.2v21.2H357zM382.1 169.3h14.2v21.2h-14.2zM406.8 169.3H421v21.2h-14.2zM357 136.9h14.2v21.2H357zM382.1 136.9h14.2v21.2h-14.2zM406.8 136.9H421v21.2h-14.2z"/><g><path class="st34" d="M357 235.4h14.2v21.2H357z"/><path class="st1" d="M382.1 235.4h14.2v21.2h-14.2zM406.8 235.4H421v21.2h-14.2z"/></g><g><path class="st34" d="M357 267.3h14.2v21.2H357zM382.1 267.3h14.2v21.2h-14.2z"/><path class="st1" d="M406.8 267.3H421v21.2h-14.2z"/></g><g><path class="st34" d="M357 299.1h14.2v21.2H357zM382.1 299.1h14.2v21.2h-14.2z"/><path class="st1" d="M406.8 299.1H421v21.2h-14.2z"/></g><g><path class="st34" d="M357 331h14.2v21.2H357zM382.1 331h14.2v21.2h-14.2z"/><path class="st1" d="M406.8 331H421v21.2h-14.2z"/></g></g><path class="st32" d="M461.3 208.1H478v15.8h-16.7z"/><path class="st33" d="M357 108.6h64.4v17.1H357z"/><path d="M477.1 441.4H34.9c-2 0-3.5-1.6-3.5-3.5 0-2 1.6-3.5 3.5-3.5h442.2c2 0 3.5 1.6 3.5 3.5.1 1.9-1.5 3.5-3.5 3.5z" style="fill:#da9500"/><path class="st0" d="M200 120.2c.7-15 13-26.9 28.2-26.9 5.1 0 9.9 1.4 14 3.7.5-7.4 6.7-13.2 14.2-13.2 6.7 0 12.4 4.7 13.8 11 1.8-.4 3.7-.7 5.6-.7 10.1 0 18.8 6.3 22.3 15.3 2-.8 4.2-1.2 6.5-1.2 5.5 0 10.5 2.5 13.8 6.5 1.8 2.2.2 5.5-2.7 5.5H200zM138.1 88v.5H84.9c1.5-5.2 6.3-9 12-9 1.3 0 2.6.2 3.7.6 3.1-6.9 9.9-11.6 17.9-11.6 10.8-.1 19.6 8.6 19.6 19.5zM391.3 71.7v.6h-91.8v-.6c0-9 7.3-16.2 16.2-16.2 1.7 0 3.3.3 4.9.7 4-8.9 12.9-15.2 23.3-15.2 10.8 0 20.1 6.7 23.8 16.2 2.2-1.1 4.7-1.8 7.4-1.8 8.9 0 16.2 7.3 16.2 16.3z"/><g><path class="st35" d="M173.6 432.1h-26.7c-4.7 0-8.5-3.8-8.5-8.5v-69c0-4.7 3.8-8.5 8.5-8.5h26.7c4.7 0 8.5 3.8 8.5 8.5v69c0 4.7-3.8 8.5-8.5 8.5zM402.1 432.1h-26.7c-4.7 0-8.5-3.8-8.5-8.5v-69c0-4.7 3.8-8.5 8.5-8.5h26.7c4.7 0 8.5 3.8 8.5 8.5v69c.1 4.7-3.7 8.5-8.5 8.5z"/><path class="st35" d="M173.6 432.1h-26.7c-4.7 0-8.5-3.8-8.5-8.5v-69c0-4.7 3.8-8.5 8.5-8.5h26.7c4.7 0 8.5 3.8 8.5 8.5v69c0 4.7-3.8 8.5-8.5 8.5zM402.1 432.1h-26.7c-4.7 0-8.5-3.8-8.5-8.5v-69c0-4.7 3.8-8.5 8.5-8.5h26.7c4.7 0 8.5 3.8 8.5 8.5v69c.1 4.7-3.7 8.5-8.5 8.5z"/><path d="M425.1 262.5h-18.3c-2.4 0-4.4 2-4.4 4.4v9.1c-.7.3-1.4.7-2.2 1.2-.3-1-.5-2-.7-3.3l-2.4-13.4c-.1-.3-.1-.6-.2-.8l-.1-.8c-3.3-17.1-11-37.4-17.4-48.7l-.3-.5c-2-3.5-5.6-10-14.1-10.4-30.3-2.2-60.4-3.3-90.4-3.3-30 0-60.1 1.1-90.4 3.3-8.5.4-12.2 6.9-14.1 10.4l-.3.5c-6.4 11.3-14.1 31.7-17.4 48.7l-.1.8c-.1.3-.1.6-.2.8l-2.4 13.4c-.2 1.3-.4 2.4-.7 3.3-.7-.5-1.5-.9-2.2-1.2v-9.1c0-2.4-2-4.4-4.4-4.4H124c-2.7 0-4.8 2.5-4.3 5.1l1.8 10.2c.5 2.6 2.7 4.4 5.3 4.4h15.8c.2 0 .4-.1.6-.1.4.4.9.8 1.5 1.2-4.1 1.7-15.6 7.9-15.6 27.7l3.5 69.5c0 7.7 8.5 17.9 14.7 17.9 41.8 5 84.2 7.3 127.1 7.1 42.9.1 85.3-2.2 127.1-7.1 6.2 0 14.7-10.3 14.7-17.9l3.5-69.5c0-19.8-11.4-26-15.6-27.7l1.5-1.2c.2 0 .4.1.6.1H422c2.6 0 4.9-1.9 5.3-4.4l1.8-10.2c.8-2.7-1.3-5.1-4-5.1zm-42.7 9.8c-34.3-1.6-68.7-2.4-103-2.4h-9.6c-34.4 0-68.7.8-103 2.4-4.4.2-8.4-2.5-8-6.1 1.7-16.3 10.2-40.2 17.5-53 1.8-3.2 3.6-6.7 8-6.9 34.3-1.6 51.1-2.4 85.5-2.4h9.6c34.4 0 51.2.8 85.5 2.4 4.4.2 6.2 3.7 8 6.9 7.3 12.8 15.8 36.7 17.5 53 .4 3.6-3.6 6.3-8 6.1z" style="fill-rule:evenodd;clip-rule:evenodd;fill:#da9500"/><path class="st37" d="M364.9 206.4c-34.3-1.6-51.1-2.4-85.5-2.4h-9.6c-34.4 0-51.2.8-85.5 2.4-4.4.2-6.2 3.7-8 6.9-7.3 12.8-15.8 36.7-17.5 53-.4 3.6 3.6 6.3 8 6.1 34.3-1.6 68.7-2.4 103-2.4h9.6c34.4 0 68.7.8 103 2.4 4.4.2 8.4-2.5 8-6.1-1.7-16.3-10.2-40.2-17.5-53-1.9-3.2-3.6-6.7-8-6.9z"/><path d="M276.9 280.7c57 0 100.9 1 109.2 2.5l-29 35.1c-3.5 4.3-9.9 6.9-16.5 6.9H208.5c-6.7 0-13-2.7-16.5-6.9l-29-35.1c8.9-1.4 55.7-2.5 113.9-2.5zm0-3.5c-51.9 0-104.4.9-114.5 2.5-2.9.5-4.6 2.8-3 4.7l29.9 36.2c4.2 5.1 11.5 8.2 19.3 8.2h132.1c7.8 0 15.1-3.1 19.3-8.2l29.9-36.2c1.6-2-.1-4.2-3-4.7-9.8-1.7-59.6-2.5-110-2.5z" style="fill:#ca611f"/><path class="st1" d="m369.9 336.6 34.9-1.5c2.7-.1 4.2-2.1 5.3-4.9 1.4-7.6 1.8-16.2 1.6-25.5.1-3.2-2.4-6-5.7-6.2l-9.1-.6c-4.9-.3-9.6 2-12.3 6l-18 26.6c-1.8 2.7.1 6.2 3.3 6.1z"/><path class="st37" d="M372.3 366.2c-1.8.1-3.4-1.8-3.4-4.2v-9.9c0-2 1.7-3.7 3.8-3.8l29.5-1.2c2-.1 3.6 1.5 3.5 3.4l-.7 9c-.2 2.5-1.7 4.4-3.7 4.6l-29 2.1z"/><path class="st38" d="m370 247-76.2 10.4c-.2-1.3.8-2.6 2.1-2.7l71.4-9.7c.6-.1 1.3.1 1.8.5.4.2.8.8.9 1.5z"/><path class="st35" d="m334.7 251.4-31.7 19-1.3-2.1 32.3-18z"/><ellipse class="st35" cx="301.7" cy="269.2" rx="2.4" ry="1.9"/><path class="st38" d="m287.6 250.4-76.2 10.4c-.2-1.3.8-2.6 2.1-2.7l71.4-9.8c.6-.1 1.3.1 1.8.5.4.4.8 1 .9 1.6z"/><ellipse transform="rotate(-3.282 219.457 270.438) scale(1.00004)" class="st35" cx="219.5" cy="270.4" rx="2.4" ry="1.9"/><path class="st35" d="m253.6 254.3-32.9 16.8-1.2-2.2 33.5-15.8z"/><path d="M176.7 366.2c1.8.1 3.4-1.8 3.4-4.2v-9.9c0-2-1.7-3.7-3.8-3.8l-29.5-1.2c-2-.1-3.6 1.5-3.5 3.4l.7 9c.2 2.5 1.7 4.4 3.7 4.6l29 2.1z" style="fill-rule:evenodd;clip-rule:evenodd;fill:#f1c40f"/><path class="st1" d="m180.3 336.6-34.9-1.5c-2.7-.1-4.2-2.1-5.3-4.9-1.4-7.6-1.8-16.2-1.6-25.5-.1-3.2 2.4-6 5.7-6.2l9.1-.6c4.9-.3 9.6 2 12.3 6l18 26.6c1.8 2.7-.2 6.2-3.3 6.1z"/><path class="st40" d="M332.8 381.6c-39.2 2.4-77.5 2.4-116.6 0-4.3-.3-8.2-3.8-8.6-7.8-.9-10-.9-20 0-30 .4-4 4.3-7.5 8.6-7.8 39.2-2.4 77.5-2.4 116.6 0 4.3.3 8.2 3.8 8.6 7.8.9 10 .9 20 0 30-.3 4.1-4.3 7.6-8.6 7.8z"/><g><path class="st35" d="M223.1 375.8c0 1.5-2 2.7-4.5 2.7h-.5c-2.5 0-4.5-1.2-4.5-2.7v-33.9c0-1.5 2-2.7 4.5-2.7h.5c2.5 0 4.5 1.2 4.5 2.7v33.9zM239.1 375.8c0 1.5-2 2.7-4.5 2.7h-.5c-2.5 0-4.5-1.2-4.5-2.7v-33.9c0-1.5 2-2.7 4.5-2.7h.5c2.5 0 4.5 1.2 4.5 2.7v33.9zM255.2 375.8c0 1.5-2 2.7-4.5 2.7h-.5c-2.5 0-4.5-1.2-4.5-2.7v-33.9c0-1.5 2-2.7 4.5-2.7h.5c2.5 0 4.5 1.2 4.5 2.7v33.9zM271.2 375.8c0 1.5-2 2.7-4.5 2.7h-.5c-2.5 0-4.5-1.2-4.5-2.7v-33.9c0-1.5 2-2.7 4.5-2.7h.5c2.5 0 4.5 1.2 4.5 2.7v33.9zM287.3 375.8c0 1.5-2 2.7-4.5 2.7h-.5c-2.5 0-4.5-1.2-4.5-2.7v-33.9c0-1.5 2-2.7 4.5-2.7h.5c2.5 0 4.5 1.2 4.5 2.7v33.9zM303.3 375.8c0 1.5-2 2.7-4.5 2.7h-.5c-2.5 0-4.5-1.2-4.5-2.7v-33.9c0-1.5 2-2.7 4.5-2.7h.5c2.5 0 4.5 1.2 4.5 2.7v33.9zM319.4 375.8c0 1.5-2 2.7-4.5 2.7h-.5c-2.5 0-4.5-1.2-4.5-2.7v-33.9c0-1.5 2-2.7 4.5-2.7h.5c2.5 0 4.5 1.2 4.5 2.7v33.9zM335.4 375.8c0 1.5-2 2.7-4.5 2.7h-.5c-2.5 0-4.5-1.2-4.5-2.7v-33.9c0-1.5 2-2.7 4.5-2.7h.5c2.5 0 4.5 1.2 4.5 2.7v33.9z"/></g><path class="st40" d="M274.5 387.7c-48.3-.1-93.7-3.6-140.9-7.8-5.2 0-5.2 8-5.2 8 0 6.8 0 16.4 13.8 17.4 43.6 4.2 87.7 6.2 132.3 6.3 44.6-.1 88.7-2.1 132.3-6.3 13.8-1 13.8-10.6 13.8-17.4 0 0 0-8-5.2-8-47.2 4.2-92.5 7.7-140.9 7.8z"/><g><path d="M268.9 277.1c-1.8 16.8-4.2 33.9-7.8 50.5-1.4 6.3-2.9 12.6-4.6 18.8-1.3 4.7-2.7 9.3-4.2 13.9-2.2 6.6-4.6 13-7.4 19.3-12.7 29.2-31.7 54.8-60.6 72.8-60.2-37.5-77.4-108.1-84.5-175.3 28.7-9.8 49-13.1 84.5-14.2 35.5 1.1 55.9 4.4 84.6 14.2z" style="fill-rule:evenodd;clip-rule:evenodd;fill:#fff;stroke:#ffc229;stroke-miterlimit:10"/><path d="M184.3 262.8c-35.5 1.1-55.9 4.4-84.5 14.2l5.9 3.9c25.6-8.4 44.8-11.4 78.6-12.5 33.8 1.1 52.9 4.1 78.6 12.5l5.9-3.9c-28.6-9.8-49-13-84.5-14.2z" style="fill-rule:evenodd;clip-rule:evenodd;fill:#99989d"/><path d="M184.3 471C110.1 430.7 90 348.4 82.5 266.1c37.6-14 60.7-18.1 101.8-19.4 41.1 1.3 64.1 5.4 101.8 19.4-7.4 82.3-27.6 164.6-101.8 204.9zm0-208.2c-35.5 1.2-55.9 4.4-84.5 14.2 7.1 67.2 24.3 137.8 84.5 175.3 60.2-37.5 77.4-108.1 84.5-175.3-28.6-9.8-48.9-13-84.5-14.2z" style="fill-rule:evenodd;clip-rule:evenodd;fill:#5b5b5f"/><path d="m268.8 277-5.9 3.9c-6.5 58.1-21.9 127.6-78.6 164.9v6.6c60.3-37.5 77.4-108.1 84.5-175.4.1 0 0 0 0 0z" style="fill-rule:evenodd;clip-rule:evenodd;fill:#868589"/><path d="m105.8 280.9-5.9-3.9c7.1 67.2 24.3 137.8 84.5 175.3v-6.6c-56.7-37.1-72.1-106.7-78.6-164.8z" style="fill-rule:evenodd;clip-rule:evenodd;fill:#d7d8dc"/></g><g><path d="M148.6 303c-.5.7-.7 1.6-.7 2.5v88.4l24.7-13.7h.2c.8-.5 1.4-1.1 1.9-1.9.4-.7.7-1.6.7-2.5v-57.9L148.6 303z" style="fill:#fbb03b"/><path d="M229.7 347.8c.4-.7.7-1.6.7-2.5v-24.6c0-.9-.3-1.8-.7-2.5L202.9 333l26.8 14.8z" style="fill:#801d1f"/><path d="M175.4 288.1c-.9 0-1.8.2-2.6.6L150.5 301c-.8.5-1.4 1.1-1.9 1.9l26.8 14.8v-29.6z" style="fill:#f7931e"/><path d="M229.7 318.2c-.4-.7-1.1-1.4-1.9-1.9l-24.9-13.8-24.9-13.7c-.8-.4-1.7-.6-2.6-.6v29.6l27.5 15.2 26.8-14.8z" style="fill:#bf0811"/><linearGradient id="SVGID_1_" gradientUnits="userSpaceOnUse" x1="175.415" y1="347.767" x2="229.684" y2="347.767"><stop offset="0" style="stop-color:#bab9bd"/><stop offset="1" style="stop-color:gray"/></linearGradient><path d="M229.7 347.8 202.9 333l-27.5 15.2 24.7 13.7.1.1c.8.4 1.7.6 2.6.6.9 0 1.8-.2 2.6-.6l22.3-12.3c.9-.6 1.5-1.2 2-1.9z" style="fill:url(#SVGID_1_)"/></g></g></g></switch></svg>