<svg version="1.1" id="Capa_1" xmlns="http://www.w3.org/2000/svg" x="0" y="0" viewBox="0 0 512 512" style="enable-background:new 0 0 512 512" xml:space="preserve"><style>.st1{fill:#fff}.st5{fill:#a0cc8a}.st7{fill:#da9500}.st9{fill:#211915}.st10{fill:#f4daba}.st11{fill:#ecedef}.st12{fill:#fcf1e6}.st13{opacity:.5;fill:#adacb2}.st15{fill:#868589}.st16{fill:#f4ac75}.st17{fill:#be0811}.st19{fill:#3b2c16}.st20{fill:#323c66}.st24{fill:#b84c42}.st27{fill:#434142}.st29{fill:#88b374}</style><switch><g><path d="M494.9 307.4c-.5 3.2-1.1 6.2-1.8 9.3-.7 2.8-1.4 5.6-2.2 8.3-1.4 4.6-3 9-4.9 13.2-9.3 20.9-24.5 36.8-45.5 43.6-39.8 12.8-110.2 23.3-182.3 23.3-88.3 0-179.1-15.6-219.6-61.7-2-2.3-3.9-4.7-5.7-7.1-1.5-2.1-2.9-4.2-4.2-6.4-.9-1.5-1.7-3-2.5-4.5-.1-.1-.2-.3-.2-.4-.6-1.2-1.2-2.5-1.8-3.7-1.5-3.4-2.9-7.2-4.2-11.4 0-.1 0-.1-.1-.2-3.5-11.8-5.5-26.3-4.7-41.4.3-4.9.8-9.9 1.7-14.9 6.6-36.1 31.7-72.2 93.3-82.3 107.9-17.7 118.2-81.3 258.5-59.8 52 8 88.3 42.6 108.7 84.8 12.5 25.7 19 54.3 19.5 81.2.3 10.4-.4 20.4-2 30.1z" style="fill:#e3eaff"/><path class="st1" d="M79.3 224.1c-.1-.1-1.3-1.1-3.5 0-2.3 1.2-5.3 1.8-6.7 1.4-1.4-.4-15 7.9-15 7.9 6.6-5.2 11.7-9.3 11.7-9.3s5.4-5.2 8.9-3.7c1.6.7 3.2 2.3 4.6 3.7z"/><circle cx="366.3" cy="136.7" r="6" style="fill:#f7faff"/><path class="st1" d="M238.4 149.5s5.5-7.8 18.8-7c0 0 19.2-13 39.7-1.7 0 0 21.8-2.8 37.9 2.4 10.8 3.5 14.3 7.1 14.3 7.1l-110.7-.8zM338.1 171.5s4.1-7.1 13.9-6.3c0 0 14.2-11.9 29.4-1.6 0 0 16.1-2.6 28.1 2.2 8 3.2 10.6 6.5 10.6 6.5l-82-.8z"/><path d="M490.8 324.9c-8.3 27.4-25.1 48.7-50.5 56.9-2.7.9-5.6 1.8-8.6 2.6-40.8 11.6-106.5 20.7-173.7 20.7-64.9 0-131.2-8.5-177.8-31.3-24.6-12-43.7-28-54.3-48.9h464.9z" style="fill:#b7dda5"/><path d="M365.3 324.9H150.4l-70.2 48.9c46.6 22.8 112.9 31.3 177.8 31.3 67.2 0 132.9-9.1 173.7-20.7l-66.4-59.5z" style="fill:#717175"/><path class="st5" d="M142.1 325.4h-116c-.1-.1-.2-.3-.2-.4-.6-1.2-1.2-2.5-1.8-3.7-1.5-3.4-2.9-7.2-4.2-11.4-3.5-11.9-5.6-26.4-4.8-41.6 4.6 2 9 4.8 12.3 8.5 9.9 11 20.6-11.8 52.7-3.4s29.1 35.6 42.7 37.7c11.4 1.8 17.3 10.7 18.9 13.5.3.5.4.8.4.8z"/><path d="M123.9 334.8c-.7.9-72.6 1.3-91.2 1.4-1.5-2.1-2.9-4.2-4.2-6.4-.9-1.5-1.7-3-2.5-4.5-.1-.1-.2-.3-.2-.4-.6-1.2-1.2-2.5-1.8-3.7-1.5-3.4-2.9-7.2-4.2-11.4 0-.1 0-.1-.1-.2 7.1-1.8 21.3-3.7 31.6 6 14.3 13.4 37.3.6 48.7 4.2 11.4 3.7 7.8 9.4 15.2 10.6 7.6 1.3 9.5 3.4 8.7 4.4z" style="fill:#94bf7f"/><path class="st5" d="M490.8 324.9H374.6s4.3-15.9 29.8-17.8c25.5-1.9 30.4-24 58.8-21.4 13.4 1.2 24.7-3.5 33.8-8.4.3 16.9-1.8 33.1-6.2 47.6z"/><path class="st7" d="M375.8 247.5h21.9c3.1 0 5.5-2.5 5.5-5.5 0-5.6-4.5-10.1-10.1-10.1H381c-2.9 0-5.2 2.3-5.2 5.2v10.4zM365.1 240.7h10.7v6.7h-10.7zM140.9 235.5v12h-23.2c-2.3 0-4.2-1.7-4.2-3.9v-4.7c0-3.9 3.5-7.1 7.7-7.1h15.7c2.2 0 4 1.7 4 3.7z"/><path class="st7" d="M151.5 240.7v6.7h-33.9c-2.3 0-4.2-1.7-4.2-3.9v-2.9h38.1z"/><path class="st7" d="m139.6 253.6 6.5-10h224l2.4 10-64.1 37.8H187.5z"/><path class="st7" d="M179.2 182.6c21.2-1.9 90.7-6.9 157.2 0 3.7.4 7 2.8 9.4 6.6 6.5 10.6 19.5 33.3 24.3 52.1.9 3.4-1 6.9-3.6 6.9h-217c-2.6 0-4.4-3.6-3.4-6.9 3.3-10.6 10.6-31.6 22-50.8 2.8-4.7 6.8-7.5 11.1-7.9z"/><path d="M361.1 248.1c-.1 0-.1.1 0 0-.5.3-1 .4-1.5.4H156.3c-1 0-1.8-.6-2.4-1.5-.2-.3-.4-.7-.6-1.1-.4-1.2-.5-2.6-.1-3.9 3.1-9.9 10-29.6 20.6-47.6 2.5-4.3 6.3-7 10.4-7.3 19.9-1.7 84.9-6.5 147.2 0 3.4.4 6.6 2.6 8.8 6.2 6.1 9.9 18.3 31.2 22.7 48.8.7 2.5-.2 5-1.8 6z" style="fill:#f7f7f8"/><path class="st7" d="M211.6 291.4h-88.8s-4.2-22.9 16.8-37.8M389.3 291.4s4.2-22.9-16.8-37.8c0 0-57.4-5.5-72 37.8h88.8z"/><path class="st9" d="M151.5 367.7c-10.3 0-18.6-8.3-18.6-18.6v-8c0-10.3 8.3-18.6 18.6-18.6s18.6 8.3 18.6 18.6v8c.1 10.3-8.3 18.6-18.6 18.6zM364.9 367.7c-10.3 0-18.6-8.3-18.6-18.6v-8c0-10.3 8.3-18.6 18.6-18.6s18.6 8.3 18.6 18.6v8c0 10.3-8.3 18.6-18.6 18.6z"/><path class="st7" d="M389.7 291.4v52.3c0 5.4-4.8 9.8-10.7 9.8h-61.6c-2.2 0-4.2-.7-5.8-1.9-1-.7-1.8-1.7-2.4-2.7-1.3-2.4-3.9-3.9-6.8-3.9H209c-3.8 0-6.7 1.8-8.8 4.7-1.4 2-2.9 3.8-6.3 3.7H133c-5.6 0-10.1-4.1-10.1-9.2v-52.9h266.8z"/><path class="st10" d="M381.9 268.2v16c0 2.2-1.9 4-4.3 4h-58.2c-2 0-3.2-2-2.1-3.5l5.9-8.2c4.3-6 11.5-9.7 19.3-10l35.8-1.4c1.9-.2 3.6 1.3 3.6 3.1zM199 288.1h-58.2c-2.4 0-4.3-1.8-4.3-4v-16c0-1.8 1.6-3.3 3.6-3.2l3 .1 20.2.8 3.5.1 9.1.4c5.8.2 11.3 2.3 15.4 5.9 1.4 1.2 2.7 2.6 3.8 4.1l5.9 8.2c1.2 1.6 0 3.6-2 3.6z"/><path class="st11" d="M164.2 328.7h-29.1c-1.2 0-2.2.9-2.2 2v8c0 .9.8 1.6 1.8 1.6l1.5-.1 10.1-.4 1.8-.1 4.6-.2c2.9-.1 5.6-1.2 7.7-2.9.7-.6 1.4-1.3 1.9-2.1l2.9-4.1c.6-.7 0-1.7-1-1.7zM349.9 328.7H379c1.2 0 2.2.9 2.2 2v8c0 .9-.8 1.6-1.8 1.6l-1.5-.1-10.1-.4-1.8-.1-4.6-.2c-2.9-.1-5.6-1.2-7.7-2.9-.7-.6-1.4-1.3-1.9-2.1l-2.9-4.1c-.6-.7 0-1.7 1-1.7zM208.6 271.3h95c1.5 0 2.5 1.5 1.8 2.8l-4.7 9.8c-1.2 2.5-3.8 4.1-6.6 4.1h-75.2c-2.6 0-4.9-1.4-6.2-3.5l-5.9-10.3c-.7-1.2.3-2.9 1.8-2.9zM293.6 325.3h-70.2c-4.5 0-8.1-3.6-8.1-8.1s3.6-8.1 8.1-8.1h70.2c4.5 0 8.1 3.6 8.1 8.1s-3.7 8.1-8.1 8.1z"/><path class="st12" d="M191.4 273.2c0 6.8-6.1 12.4-13.6 12.4s-13.6-5.5-13.6-12.4c0-2.7.9-5.2 2.5-7.2l9.1.4c5.8.2 11.3 2.3 15.4 5.9.2.3.2.6.2.9zM163.5 267.8c0 5.2-4.7 9.5-10.4 9.5s-10.4-4.3-10.4-9.5c0-.9.1-1.8.4-2.6l20.2.8c.1.5.2 1.1.2 1.8zM327 273.2c0 6.8 6.1 12.4 13.5 12.4s13.5-5.5 13.5-12.4c0-2.7-.9-5.2-2.5-7.2l-9.1.4c-5.8.2-11.3 2.3-15.4 5.9.1.3 0 .6 0 .9zM354.9 267.8c0 5.2 4.7 9.5 10.4 9.5s10.4-4.3 10.4-9.5c0-.9-.1-1.8-.4-2.6l-20.2.8c-.1.5-.2 1.1-.2 1.8z"/><path class="st11" d="M311.5 351.7c-1-.7-1.8-1.7-2.4-2.7-1.3-2.4-3.9-3.9-6.8-3.9h-93.4c-3.8 0-6.7 1.8-8.8 4.7 0 0 2.1-15.3 12.8-15.3h87.6s9.7.3 11 17.2z"/><path class="st13" d="M314.9 211.8h-7.8c-3 0-5.5-2.5-5.5-5.5s2.5-5.5 5.5-5.5h7.8c3 0 5.5 2.5 5.5 5.5 0 3.1-2.5 5.5-5.5 5.5z"/><path d="M205.4 211.8h-7.8c-3 0-5.5-2.5-5.5-5.5s2.5-5.5 5.5-5.5h7.8c3 0 5.5 2.5 5.5 5.5 0 3.1-2.5 5.5-5.5 5.5z" style="opacity:.5;fill:#868589"/><path class="st13" d="M226.6 221.9V245c0 .9-.2 1.8-.4 2.7-.1.3-.2.6-.3.8h-58c-.5-1.1-.8-2.3-.8-3.5V221.8c.1-4.5 3.8-8.2 8.3-8.2h42.9c1.6 0 3.2.5 4.5 1.3 1.6 1 2.8 2.5 3.4 4.4.3.8.4 1.6.4 2.5v.1z"/><path class="st13" d="M285.2 221.9V245c0 1.3-.3 2.4-.8 3.5h-58c-.1-.3-.2-.5-.3-.8-.3-.8-.4-1.7-.4-2.7v-23.1c0-.3 0-.7.1-1 .1-.6.2-1.1.4-1.7.4-1.3 1.2-2.4 2.1-3.3 1-1 2.2-1.7 3.6-2 .7-.2 1.4-.3 2.2-.3H277c1 0 1.9.2 2.8.5.7.2 1.3.6 1.9 1 .2.1.4.3.6.4.6.5 1.2 1.1 1.6 1.7.8 1.4 1.3 3 1.3 4.7zM345.1 221.9v23.3c0 .8-.2 1.7-.4 2.4-.1.3-.2.6-.4.9h-58c-.5-1.1-.8-2.3-.8-3.5v-23.1c0-2.6 1.2-4.9 3.1-6.5 1.4-1.2 3.3-1.9 5.2-1.9h42.9c3.4 0 6.4 2.1 7.6 5 .5 1.2.8 2.3.8 3.4z"/><path class="st15" d="M214.9 229.5V247.6c0 .3 0 .7-.1 1h-50.5c0-.4-.1-.9-.1-1.4v-17.7c0-2.9 1-5.6 2.8-7.7 2.1-2.5 5.2-4.2 8.6-4.5h27c1.4 0 2.8.2 4 .7 4.9 1.7 8.3 6.2 8.3 11.5zM351.1 229.5v17.7c0 .5 0 .9-.1 1.4h-50.5c0-.4-.1-.9-.1-1.4v-17.7c0-6.7 5.5-12.2 12.2-12.2h26.2c2 0 3.9.5 5.5 1.3 4.1 2.1 6.8 6.2 6.8 10.9zM330.3 214.8h-11.6c-4.2 0-7.7-3.5-7.7-7.7s3.5-7.7 7.7-7.7h11.6c4.2 0 7.7 3.5 7.7 7.7s-3.4 7.7-7.7 7.7zM195.4 214.8h-11.6c-4.2 0-7.7-3.5-7.7-7.7s3.5-7.7 7.7-7.7h11.6c4.2 0 7.7 3.5 7.7 7.7s-3.4 7.7-7.7 7.7z"/><path class="st16" d="M255.8 248.5h-9l-.5-1.5.4-14.9s3.9 2.3 5.2 5.3c.3.6.6 1.4.9 2.3.8 2.5 1.9 5.8 3 8.8zM227.7 238.8s-.4.5-1.1 1.3c-.3.3-.6.6-.9 1-.8.9-1.7 1.9-2.6 3-1.4 1.5-2.8 3.2-3.9 4.6h-6.9l1.8-3.6c.3-.5.5-1 .8-1.4 1-1.8 2-3.5 3-5 1-1.6 1.9-3 2.6-4 .5-.8 4.5-3.3 4.5-3.3l.7 1.9.9 2.5 1.1 3z"/><path class="st17" d="M253.2 238.4s-.1.6-.5 1.3c-.5 1.2-1.5 3-3.2 3.8l-.1 5.1h-26.1V246l-.1-1.9h-.1c-3.6-1.4-4.8-4.1-5.2-5.5-.1-.5-.2-.8-.2-.8 1.7-2.9 5.3-6.4 7.2-7.5.2-.1.5-.2.8-.3l.9-.3c1.4-.4 3.3-.5 5.4-.6 2.6-.1 5.6.1 8.3.3l2.7.3c4.5.5 6.9 3.2 6.9 3.2s1.4 1.1 3.3 5.5z"/><path class="st16" d="M239.3 232.1c-1.7.8-5.2 1.4-7.4-.7-.3-.3-.2-.9-.1-1.3.2-.9.6-2.6.5-4.8 0-1.4-.2-3-.6-4.8l7.3 2.4s-.1.6 0 1.6c0 .3 0 .6.1.9.1.6.2 1.3.4 1.9.1.3.2.5.3.8.1.3.3.6.4.9.5 1.1.3 2.5-.9 3.1z"/><path d="M239.4 227.3c-5.7.1-7.1-2-7.1-2l6.8.1c0 .6.1 1.2.3 1.9z" style="fill:#e9a069"/><path class="st16" d="M241.2 225.7s-7.3 3.2-10.9-2.5c-3.9-6.1-1.5-11.4 1.1-12.1 5.1-1.4 8.4.1 9.6 2 1.2 1.9 4.2 10.8.2 12.6z"/><path class="st19" d="M231.9 225.1s-1.3-2.5-1.4-3.9c0 0-2.4-2.2-1.3-3 1.1-.8 1.9.6 2.1.3.2-.3-.1-5.4 1.3-5.5 1.4-.1 6.9.8 8.9-1.6 2-2.3-4.8-9.2-13.7-4.8-8.9 4.4-5.4 14.6 4.1 18.5z"/><path class="st20" d="M223.8 211.4s-.6-1.2-.3-2.2c0 0 .2 1.2.8 1.7.6.6-.5.5-.5.5z"/><path class="st20" d="M223.9 210.5s-1.2 0-1.6 1c0 0 .7-.7 1.7-.2l-.1-.8z"/><path class="st16" d="m266.8 236.8-1.7 11.8h-5.4c.3-1.9 1-6.2 1.4-9 .2-1.6.4-2.7.4-2.7h5.3z"/><path class="st9" d="M273.1 211.3s-2-1-4.2 0-3.9 5-2.9 8.8c1 3.8-2.4 3.9-.8 6.9.6 1.1 7.9 2 8.1-2.2.2-2.6-2.2-2.7-1.5-5.6.7-2.8 1.3-7.9 1.3-7.9z"/><path class="st9" d="M268.3 212.5c.1-.1 2.6-4.1 7.3-4.9 3.8-.6 7.4 2.1 8 5.9.6 3.9 0 8.9-6.3 10.7l-9-11.7z"/><path class="st16" d="m269.5 229.7 7.1 4.2 1.8-5s-.8-1.8-1.1-4.8c-.1-1.2-.1-2.7.1-4.2l-6.2 2.7s.1.6.2 1.4c0 .9 0 2.1-.3 3.2-.3 1-.8 1.9-1.6 2.5z"/><path d="M271.1 227.3c3.4.1 6.3-3.1 6.3-3.1l-5.9-.1c0 .8-.1 2-.4 3.2z" style="fill:#e19054"/><path class="st16" d="M269.6 225.2s6.7 2.2 9.4-3c2.9-5.7.4-10.1-1.9-10.6-4.6-.9-7.4.7-8.3 2.5-1 1.9-2.9 9.9.8 11.1z"/><path class="st17" d="M287.2 248.5h-23.8c-.2-2.8-.4-5.7-.5-8.2 0-1.3-.1-2.5-.1-3.5 0-2.7.2-4.7.6-5.1l.1-.1c3-2.6 6.4-2.9 6.9-2.9v.1c-.1 1 .3 2 2.1 2.3 2.4.5 4.6-1 5.8-2l.1-.1c1.8.4 4.8 1.6 6.7 3.3l.3.3.2.2c1.1.9 1.5 7.5 1.6 15.7z"/><path class="st9" d="M274.3 212.3s-.6 6.3 5.3 8.5c2.4.9 3.6-8.7-1.4-10.6-5-1.9-9.9.4-10.4 3.7-.6 3.4-.1 4.1-.1 4.1s2.3-6.5 6.6-5.7z"/><path class="st9" d="M281.7 211.4s2-1.1 4.2 0 3.9 5.6 2.9 9.9c-1 4.3 2.4 4.3.8 7.8-.6 1.2-7.9 2.2-8.1-2.5-.2-2.9 2.2-3.1 1.5-6.3-.7-3.2-1.3-8.9-1.3-8.9z"/><path class="st17" d="M263.5 231.6s-3 3.1-3.3 7.4c0 0 2 1.7 3.8 1.3 1.9-.3-.5-8.7-.5-8.7z"/><path class="st16" d="M284.8 241.5s-.9 3.5-2.1 7.1h-7.2c1-3.8 2.2-9.7 2.2-9.7 3 2.9 7.1 2.6 7.1 2.6z"/><g><path d="M351.1 231.5c-1.4-1.4-2.6-2.5-3.4-3.1-.8-.6-1.7-1.2-2.6-1.7-5.3-2.8-12.7-3.9-13.7-4.1h-.1c0 2.1-4.5 4-8.2 3.7-3.1-.2-5.1-2.6-5.1-3.8h-.1c-1.1.2-10 2.1-16.3 6.8-.3.2-.6.5-.9.8-3.3 3-9.5 11.2-12.6 18.5H360.2c.4 0 .8-.2 1.1-.4.5-.3.9-.7 1.3-1.3-3.2-6-7.9-11.7-11.5-15.4z" style="fill:#a53732"/><path class="st16" d="M322.5 227.2c-5.1-.6-4.7-4.7-4.7-4.7s.5-1.2.9-3.3c.2-1.3.4-3 .2-4.9l1.6-.3 9.8.2c.1.1.1.1.1.2-.5 3.5.4 6.7.9 8.2.2 3.2-3.7 5.2-8.8 4.6z"/><path d="M330.3 214.2c-.2 1-2.7 4.4-7.9 5-.7.1-2.4.1-3.8 0 .2-1.3.4-3 .2-4.9l1.6-.3 9.9.2z" style="fill:#d68b52"/><path class="st16" d="M331.2 212.2c-1.1 6.2-9.1 6-12.5 5.6-1-.1-1.6-.2-1.6-.2-1.1-.3-1.7-2-2-4.3-.6-4.4.1-11 .9-12.6 1.1-2.5 3.3-5.2 11.3-3.3 8 1.9 5.4 6.9 3.9 14.8z"/><path class="st9" d="M331.4 194.1s.1 0 0 0c.2-.3.5-.2.5-.2-.5-.2-1.2-.1-1.2-.1l-.1-.1c-.1-.6-.7-1.1-.7-1.1.2.3.3.6.3.8-1.4-.7-4-3.2-9-.9-2.3 1.1-4.5 1.7-6.2 2.1-2.2.5-3.2 3.1-1.9 5 .7.9 1.5 1.8 2.4 2.5 3 .9 7-.7 8.9.9 1.9 1.6.1 4.2 2.3 5.1.6.2 1.2 0 1.5-.5.5-.9 1.3-1.7 2.1-1.2 1.6 1 .8 4.3.4 5-.6 1-.5 2.9-.5 2.9s4.2-2.4 5.4-5.2c3.2-6.9 1.1-12.4-4.2-15z"/></g><path class="st24" d="M301.9 248.5h3.4c.2-1.3.3-2.5.4-3.4v-.2c.1-.8.1-1.3.1-1.3 0-.1.4-1.2-.6-1.8-.5-.3-1.2-.5-2.5-.5 0 0-.5.2-1.4.6-.3.1-.6.3-1 .5-2.6 1.3-6.9 3.5-10.1 6.1h11.7zM351.1 241.7c-1.6-1-2.6-1.6-2.6-1.6-1.3-.1-2.3.3-3 .8-.1.1-.3.2-.4.3-.4.3-.7.7-.9 1-.5.7-.6 1.3-.6 1.3s.1.8.2 2v.3c.1.8.2 1.7.4 2.7H360c-2.8-2.7-6.5-5.2-8.9-6.8z"/><g><path class="st19" d="M214.9 234c-.6-1.8-1.7-3.8-3.7-6.1-3.1-3.6-4.2-6.9-4.5-9.9-.2-1.5-.1-3-.1-4.4 0-.5 0-1 .1-1.5v-.3c0-2.5-.9-7.2-3.3-11-2.3-3.6-6-6.3-11.6-5.7 0 0-3-1.2-6.9.7-1.9.9-3.3 2.2-4.4 3.6-2.6 3.5-3.2 8.1-3.8 12.3-.1.6-.2 1.2-.2 1.8-.2 1.3-.4 2.6-.7 3.7-.6 2.1-1.4 3.7-3 4.7-2.7 1.7-4.6 3.8-5.6 6-1.6 3.3-1.4 6.9 0 9.7.3.5.5.9.9 1.4 2.1 2.8 5.6 4.4 9.9 3.3-.2-.3.5-1 1.7-1.7 4.3-2.5 15-5.6 15.2 5.5 0 0 5.2-.1 10.4-1.5 2.9-.8 5.9-1.9 7.8-3.6.9-.8 1.6-1.7 2-2.7.3-1.1.3-2.6-.2-4.3z"/><path class="st16" d="M205.5 248.5h-26.2c.1-2.7.2-5.3.3-7.7.2-6.3.4-11.1.4-11.1.5-.2 1.5-.3 2-.4 1.7-.4 3.1-1.6 3.6-3.2.7-1.9 1.2-4.8 1.2-8.4l.5.1 8.8 1.7v5.7c0 2.3 1.5 4.3 3.7 4.9 1.1.3 2 .6 2.1.6 0 0 2.3 6.6 3.4 14.3-.1 1 .1 2.3.2 3.5z"/><path d="M196.2 219.6s-.2 2.8-.2 5.4c-4.9-.1-7.5-4.6-8.6-7.1l8.8 1.7z" style="fill:#dc8e53"/><path class="st16" d="M197.8 222.1s-11.7.2-11.7-7.1-1.5-12.1 5.9-12.6c7.4-.4 8.9 2.3 9.5 4.8.6 2.4-.7 14.6-3.7 14.9z"/><path class="st19" d="M197.4 202.3s-3.2 8.5-8.1 9.8c-4.9 1.3-7-.1-7-.1s3.8-3 4.5-8.2c0 0 8.2-5.6 10.6-1.5z"/><path class="st19" d="M196.6 203s2.4.9 3.3 2.6c1 1.7 1.8 3.9 1.6 6.7 0 0 2.4-5.8-.3-9.1-2.9-3.5-4.6-.2-4.6-.2z"/><path class="st9" d="M214.9 247.6c.1.3.2.7.3 1h-48.9c.2-1.8.5-3.6.8-5.2.3-1.5.5-2.9.9-4.1.3-1.3.7-2.3 1.1-3.1 3.5-6.8 11-6.3 11-6.3 12.2 9.9 21.6.9 21.7.8 0 0 6 1.3 8 3.9 1.1 1.5 2.2 4 3.2 6.8.4 1.2.8 2.5 1.2 3.7.2.7.4 1.6.7 2.5z"/></g><g><path class="st9" d="M345.5 241c-.1-.1-.2-.3-.3-.4v-.1l-.1-.1c-.1-.1-.2-.3-.3-.4-1.9-2.2-4.1-4.1-6.7-5.6-3.6-2.1-7.9-3.3-12.4-3.3-7.2 0-13.8 3.1-18.3 8.1-.2.2-.4.4-.6.7l-.3.3-1.2 1.5c-.8 1.2-1.6 2.4-2.2 3.7-.5 1-.9 2-1.2 3.1h4.4c.4-1.1.9-2.1 1.5-3.1.5-.9 1.2-1.8 1.8-2.6 3.8-4.6 9.6-7.5 16-7.5s12.1 2.9 15.9 7.5c.7.9 1.4 1.8 2 2.9.1.1.1.2.2.3.3.6.6 1.1.9 1.7.1.3.3.6.4.9h4.4c-.8-2.8-2.2-5.3-3.9-7.6z"/><path class="st9" d="M345.5 245.1s-.2 0-.5.1-.8.2-1.3.4h-.1c-1.7.5-4.4 1.5-7 2.9h-21.4c-1.9-1.4-4.4-2.5-7.5-3.1-.6-.1-1.3-.2-2-.3h-.7l.9-1.5.8-1.4c.1 0 .6.1 1.4.3.4.1.9.2 1.5.3 5.3 1.1 17.2 2.8 32-.1.8-.2 1.7-.3 2.5-.5v.1l.9 1.8.5 1z"/></g><path class="st16" d="M348.5 240.2s-.9-1.2-2.2-2.5c-1.7-1.7-4-3.6-5.9-3.7-1.1-.1-4.5 1-4.1 2.2.4 1.4 3.7 1.9 6.1 2.1 1.2.1 3.2 2.8 3.2 2.8s1.1-.9 2.9-.9zM303.4 239c.6-.1 2.4.7 2.9 1 1.6 1.2 3.5 2.6 0 4.7-1.8 1-3.9 1-4.5.3-.7-.6-.6-5.5 1.6-6z"/><path class="st16" d="M303.9 239.1s2.3-.1 3.2-.3c.9-.2 0 .9-.3 1.1-.4.2-1.5.6-1.5.6l-1.4-1.4z"/><path class="st13" d="M259.6 211.8h-7.8c-3 0-5.5-2.5-5.5-5.5s2.5-5.5 5.5-5.5h7.8c3 0 5.5 2.5 5.5 5.5-.1 3.1-2.5 5.5-5.5 5.5zM250.3 211.8h.8v1.8h-.8zM306 211.8h.8v1.8h-.8zM259.8 211.8h.8v1.8h-.8z"/><path d="M361 248.2c-.4.2-.9.4-1.4.4H156.3c-1 0-1.8-.6-2.4-1.5 1.1-.3 3.7-1 7.1-1.1 4.6-.1 190.7 0 190.7 0s8 .2 9.3 2.2z" style="fill:#f3a35f"/><path class="st27" d="M266.6 197.3h-24.2c-2.2 0-3.9-1.8-3.9-3.9 0-2.2 1.8-3.9 3.9-3.9h24.2c2.2 0 3.9 1.8 3.9 3.9 0 2.1-1.7 3.9-3.9 3.9zM254.1 183.9h.8v5.5h-.8z"/><path style="fill:#ca611f" d="M122.8 291.4h266.7v5.6H122.8z"/><path class="st1" d="M250.1 349.4h7.2v14.2h-7.2zM250.1 379.2h7.2v14.2h-7.2z"/><path class="st29" d="M494.9 307.4c-10.7-1.4-28.7-5.1-32.6-13.8-5.6-12.7 9.9-18.8 9.6-33.5-.3-14.7-18.2-19.2-11.4-39.9 4.1-12.7 11.8-20.2 17-24.1 12.5 25.7 19 54.3 19.5 81.2.2 10.4-.5 20.4-2.1 30.1zM493 316.6c-.7 2.8-1.4 5.6-2.2 8.3-1.4 4.6-3 9-4.9 13.2-13.9 1.9-56.2 2.4-50.1-2.1 0 0 7.4-7.9 18.8-9 10.1-.9 24-13.8 38.4-10.4zM84.8 343.2c-1.5.6-31.3.3-46.4.1-2-2.3-3.9-4.7-5.7-7.1-1.5-2.1-2.9-4.2-4.2-6.4 5.4-.2 13.1.4 20.7 3.8 13.6 6.2 24-2.2 29.3 0 5.3 2.3 8.4 8.8 6.3 9.6z"/></g></switch></svg>