<svg version="1.1" id="Capa_1" xmlns="http://www.w3.org/2000/svg" x="0" y="0" viewBox="0 0 128 128" style="enable-background:new 0 0 128 128" xml:space="preserve"><style>.st0{fill:#e3eaff}.st3{fill:#fff}.st4{fill:#263238}.st5{fill:#455a64}.st6{fill:#ffbe9d}.st7{fill:#eb996e}.st8{fill:#ff725e}.st9{opacity:.6}.st10{opacity:.3}.st12{fill:#da9500}.st13{fill:#be0811}</style><switch><g><path class="st0" d="M47.8 51.8c.3-2.4-3.1-4.5-5.7-4.7-1.2-.1-2.5.1-3.7-.3-2.5-.9-3.6-4.2-6-5.2-1.9-.8-4-.1-5.8.8-1.8.9-3.6 2-5.6 2.2-1.7.1-3.6-.5-5.2.3-1.1.6-1.7 1.9-2.8 2.7-1 .8-2.4.9-3.6 1-1.3.1-2.6.1-3.8.6-1.2.5-2.1 1.8-1.9 3l44.1-.4zM124.2 74.3c.3-2.4-3.1-4.5-5.7-4.7-1.2-.1-2.5.1-3.7-.3-2.5-.9-3.6-4.2-6-5.2-1.9-.8-4-.1-5.8.8-1.8.9-3.6 2-5.6 2.2-1.7.1-3.6-.5-5.2.3-1.1.6-1.7 1.9-2.8 2.7-1 .8-2.4.9-3.6 1-1.3.1-2.6.1-3.8.6-1.2.5-2.1 1.8-1.9 3l44.1-.4z"/><path d="M69.4 17.2c3.1-3.6 11.2-1.3 16.8 1.6 0 0 3.8 1.8 5.2 2.7l13-1.6c1.1-.1 2.1.1 3.1.5l1.1.5c.5.3.5 1 0 1.3L99 26.4v.1c5.1 3.3 9.4 6.2 9.4 6.2l.1.1c1.8 1.1 3.9 1.6 6 1.2l5-.9c.3 0 .5 0 .8.1.9.4 1.1 1.5.3 2.2l-5.8 4.9c-.9.8-2.2.9-3.3.4l-2.7-1.3-13.9-6.6 1.6 7.9c.1.3-.2.6-.5.6h-.7c-.9 0-1.7-.5-2.2-1.3l-5.6-10.7-16.3-7.8c-2.1-.9-2.9-2.8-1.8-4.3z" style="fill:#d7d8dc"/><path class="st0" d="M62 15c.2-1.7-2.1-3-3.9-3.2-.8-.1-1.7.1-2.5-.2-1.7-.6-2.4-2.8-4.1-3.6-1.3-.5-2.7-.1-4 .6-1.3.6-2.5 1.3-3.9 1.4-1.2.1-2.5-.4-3.5.2-.8.4-1.2 1.3-1.9 1.9-.7.5-1.6.6-2.5.7-.9 0-1.8.1-2.6.4-.8.4-1.4 1.2-1.3 2.1L62 15z"/><path d="M80.1 106.4 39.6 95.6 57.5 28 98 38.8c4.5 1.2 7.2 5.8 6 10.4l-13.6 51.2c-1.1 4.5-5.8 7.2-10.3 6z" style="fill:#99989d"/><path class="st3" d="M74.1 82c-.9 0-1.8-.1-2.7-.3-2.8-.7-5.1-2.5-6.5-5.1-1.4-2.5-1.8-5.5-1-8.4 1.6-5.9 7.5-9.5 13.2-8 2.8.7 5.1 2.5 6.5 5.1 1.4 2.5 1.8 5.5 1 8.4-.8 2.9-2.5 5.3-5 6.8-1.7 1-3.6 1.5-5.5 1.5zm.4-21.4c-4.4 0-8.6 3.1-9.8 7.8-.7 2.7-.4 5.4.9 7.8 1.3 2.4 3.4 4 6 4.7 2.6.7 5.2.3 7.5-1.1 2.3-1.4 4-3.7 4.7-6.3.7-2.7.4-5.4-.9-7.8-1.3-2.4-3.4-4-6-4.7-.8-.3-1.6-.4-2.4-.4z"/><path transform="rotate(-75.155 74.274 70.672)" class="st3" d="M73.9 60.3h.8V81h-.8z"/><path transform="rotate(-75.149 74.004 70.89)" class="st3" d="M63.3 70.5h21.4v.8H63.3z"/><path class="st3" d="m71.4 81.5-.4-.7c2.9-1.6 4.9-3.1 6.3-4.9 1.7-2.1 2.7-5.3 2.5-8-.2-2.7-1.8-5.1-3.1-7.2l.6-.4c1.4 2.2 3 4.7 3.3 7.6.2 2.9-.8 6.2-2.6 8.5-2 2.5-4.7 4.1-6.6 5.1z"/><path class="st3" d="M70.9 81.5c-1.5-2.2-3-4.6-3.4-7.5-.4-2.9.3-6.3 1.9-8.7 1.6-2.4 4.5-3.9 6.9-5.1l.4.7c-2.3 1.2-5.1 2.7-6.6 4.9s-2.2 5.4-1.8 8.1c.4 2.8 1.8 5.1 3.3 7.2l-.7.4z"/><path class="st3" d="M80.8 67.4c-4.8 0-9.5-1.5-13.4-4.4l.5-.6c4.6 3.3 10.4 4.8 16 4l.1.8c-1.1.1-2.1.2-3.2.2zM80.5 79.5c-5.1-3.7-10.9-5.4-16-4.7l-.1-.8c5.3-.8 11.3 1 16.6 4.8l-.5.7z"/><g><ellipse transform="rotate(-75.155 52.049 62.442)" class="st4" cx="52" cy="62.4" rx="34.8" ry=".1"/></g><g><ellipse transform="rotate(-75.155 68.125 94.334)" class="st3" cx="68.1" cy="94.3" rx=".1" ry="13.5"/></g><g><ellipse transform="rotate(-75.155 67.613 96.853)" class="st3" cx="67.6" cy="96.9" rx=".1" ry="10"/></g><g><path class="st3" d="m75.8 42.3-.7 2.6-.3-.1.3-1.2-1.3-.4-.3 1.2-.3-.1.7-2.6.3.1-.3 1.2 1.3.4.3-1.1h.3zM77.6 45.2l-.1.3-1.7-.4.7-2.6 1.6.4-.1.3-1.3-.3-.2.8 1.2.3-.1.3-1.1-.3-.2.8 1.3.4zM79.7 45.4l-1.2-.3-.5.6-.3-.1 1.7-2.3.3.1.4 2.9-.3-.1-.1-.8zm0-.3-.2-1.4-.8 1.1 1 .3zM81.2 43.7l.3.1-.6 2.3 1.3.3-.1.3-1.6-.4.7-2.6zM83.3 44.6l-.8-.2.1-.3 1.9.5-.1.3-.8-.2L83 47l-.3-.1.6-2.3zM86.9 45.2l-.7 2.6-.3-.1.3-1.2-1.3-.4-.3 1.2-.3-.1.7-2.6.3.1-.3 1.1 1.3.4.3-1.1.3.1z"/><g><path class="st3" d="M69.6 46.8c-.2.8-.9 1.2-1.8.9l-.6-.1-.2.9-.9-.2 1-3.6 1.5.4c.8.2 1.2.8 1 1.7zm-.9-.3c.1-.3 0-.6-.4-.7l-.5-.1-.3 1.1.5.1c.4.1.6-.1.7-.4zM71.6 49l-1.4-.4-.4.6-.9-.2 2.4-3.2.9.2.5 4-.9-.3-.2-.7zm0-.8-.1-1.3-.7 1 .8.3zM72.8 49.7l.5-.7c.2.3.6.5 1 .6.4.1.6 0 .6-.2.2-.6-1.8-.6-1.4-2 .2-.6.8-1 1.7-.8.4.1.8.3 1.1.6l-.6.8c-.3-.3-.5-.4-.8-.5-.4-.1-.6 0-.6.2-.1.5 1.8.6 1.4 1.9-.2.6-.8 1-1.7.8-.5-.1-1-.4-1.2-.7zM75.7 50.5l.5-.7c.2.3.6.5 1 .6.4.1.6 0 .6-.2.2-.6-1.8-.6-1.4-2 .2-.6.8-1 1.7-.8.4.1.8.3 1.1.6l-.5.7c-.3-.3-.5-.4-.8-.5-.4-.1-.6 0-.6.2-.1.5 1.8.6 1.4 1.9-.2.6-.8 1-1.7.8-.5 0-1-.3-1.3-.6zM82.4 50.1c-.2.8-.9 1.2-1.8.9l-.6-.1-.2.9-.9-.2 1-3.6 1.5.4c.8.3 1.2.9 1 1.7zm-1-.2c.1-.3 0-.6-.4-.7l-.5-.1-.3 1.1.5.1c.4.1.7-.1.7-.4zM82.6 50.7c.3-1.1 1.3-1.7 2.3-1.4 1 .3 1.6 1.3 1.3 2.3-.3 1.1-1.3 1.7-2.3 1.4-1.1-.2-1.6-1.2-1.3-2.3zm2.6.7c.2-.6-.1-1.1-.6-1.3-.5-.1-1 .2-1.1.8-.2.6.1 1.1.6 1.3.5.1 1-.2 1.1-.8zM87.8 53l-.5-.1-.3 1-.9-.2 1-3.6 1.5.4c.9.2 1.3.9 1.1 1.7-.1.5-.5.9-.9 1l.4 1.3-1-.3-.4-1.2zm.5-1.9-.5-.1-.3 1.1.5.1c.4.1.6 0 .7-.4.1-.3 0-.6-.4-.7zM90.9 51.8l-1-.3.2-.8 2.9.8-.2.8-1-.3-.7 2.8-.9-.2.7-2.8z"/></g><g><ellipse transform="rotate(-75.155 69.69 41.757)" class="st3" cx="69.7" cy="41.8" rx=".1" ry="2.1"/><ellipse transform="rotate(-75.155 69.358 42.8)" class="st3" cx="69.4" cy="42.8" rx=".1" ry="2.1"/></g><g><ellipse transform="rotate(-75.155 91.114 47.435)" class="st3" cx="91.1" cy="47.4" rx=".1" ry="2.1"/><ellipse transform="rotate(-75.155 90.781 48.48)" class="st3" cx="90.8" cy="48.5" rx=".1" ry="2.1"/></g></g><g><path class="st3" d="M92.1 77.3s-1.4 2.6-4.4 1.2c.1 0 1.7-2.7 4.4-1.2zM89.5 81.2s-2 1.7-3.9-.3c0-.1 2.1-1.7 3.9.3zM86.4 83.8s-2.5 1.2-3.9-1.5c0 0 2.7-1.1 3.9 1.5zM86 76.4s2 1.7.2 3.9c0 0-1.9-1.9-.2-3.9z"/><path class="st3" d="M84.7 79.3s.7 1.8-1.3 2.7c0 0-.6-1.9 1.3-2.7zM91.9 73.7s-.3 2.4-2.9 2.1c0-.1.5-2.5 2.9-2.1zM89 70.4s1.8 1.4.3 3.5c-.1 0-1.8-1.5-.3-3.5zM86.9 73.4s2.6 1 1.6 3.8c-.1.1-2.6-1.1-1.6-3.8z"/><path class="st3" d="M80.4 82.5h.5c.4 0 .9-.1 1.5-.2s1.3-.4 2.1-.8c.4-.2.7-.4 1.1-.7.1-.1.2-.1.3-.2l.1-.1.1-.1c.1-.1.2-.2.3-.2l.3-.3.1-.1.1-.1c.1-.1.2-.2.2-.3.1-.1.1-.2.2-.3l.1-.1.1-.1c.1-.1.1-.2.2-.3.1-.1.1-.2.2-.3l.1-.1.1-.1c.1-.1.1-.2.1-.3.4-.7.6-1.5.8-2.1.1-.6.2-1.1.2-1.5v-.5.5c0 .4-.1.9-.2 1.5s-.4 1.3-.8 2.1c0 .1-.1.2-.1.3 0 0 0 .1-.1.1l-.1.1c-.1.1-.1.2-.2.3-.1.1-.1.2-.2.3l-.1.1-.1.1c-.1.1-.1.2-.2.3-.1.1-.2.2-.2.3l-.1.1-.1.1-.3.3c-.1.1-.2.2-.3.2l-.1.1-.1.1c-.1.1-.2.1-.3.2-.4.3-.7.5-1.1.7-.7.4-1.5.7-2.1.8-.6.1-1.1.2-1.5.2h-.5z"/></g><g><path class="st3" d="M55.7 67.6s-.1 3 3.2 3.2c0 0-.1-3.1-3.2-3.2zM56.1 72.3s.9 2.5 3.6 1.6c0 0-1.1-2.5-3.6-1.6zM57.5 76.1s1.6 2.3 4.2.7c-.1 0-1.9-2.3-4.2-.7z"/><path class="st3" d="M61.5 69.9s-2.6.5-2.1 3.3c-.1 0 2.6-.7 2.1-3.3zM61.2 73s-1.6 1.2-.2 3c0 .1 1.5-1.3.2-3zM57.7 64.6s-.9 2.2 1.5 3.2c0 .1.8-2.3-1.5-3.2zM61.9 63.2s-2.2.3-2 2.9c0 0 2.3-.4 2-2.9zM62.2 66.9s-2.7-.4-3.3 2.5c0 .1 2.9.3 3.3-2.5z"/><path class="st3" d="M63.3 78c-.1 0-.1 0-.1-.1-.1 0-.2-.1-.4-.2-.3-.2-.7-.5-1.2-.9s-1-1-1.4-1.7c-.2-.4-.4-.7-.6-1.2 0-.1-.1-.2-.1-.3 0-.1 0-.1-.1-.2 0-.1 0-.1-.1-.2 0-.1-.1-.2-.1-.3 0-.1-.1-.2-.1-.3v-.4c0-.1 0-.2-.1-.3v-2c0-.8.2-1.6.4-2.2.2-.6.4-1.1.5-1.4.1-.2.1-.3.2-.4v-.1s0 .1-.1.1c0 .1-.1.2-.2.4-.2.3-.4.8-.6 1.4-.2.6-.3 1.4-.4 2.2v2c0 .1 0 .2.1.3v.4c0 .1.1.2.1.3 0 .1.1.2.1.3 0 .1 0 .1.1.2 0 .1 0 .1.1.2 0 .1.1.2.1.3l.6 1.2c.4.7.9 1.3 1.4 1.7.5.4.9.7 1.2.9.1.1.3.2.4.2.2 0 .2 0 .3.1z"/></g><g><path class="st4" d="M63 70.1h1v22.3h-1zM55 70.9h1v22.3h-1z"/><path class="st5" d="M64.2 72.1h-1.4V70c0-.1-.1-.1-.1-.1h-6.3c-.1 0-.1.1-.1.1v1.8h-1.4V70c0-.9.7-1.6 1.6-1.6h6.3c.9 0 1.6.7 1.6 1.6v2.1z"/><circle class="st4" cx="53.4" cy="118.5" r="1.5"/><circle class="st4" cx="66.3" cy="118.5" r="1.5"/><path class="st4" d="M70 107.2v-11c.6 0 1.2.5 1.2 1.2v8.7c0 .6-.5 1.1-1.2 1.1z"/><path class="st5" d="M59.7 117.8c-6 0-10.9-4.9-10.9-10.9v-9c0-6 4.9-10.9 10.9-10.9s10.9 4.9 10.9 10.9v9c0 6-4.9 10.9-10.9 10.9z"/><ellipse class="st4" cx="59.7" cy="90.9" rx="10.9" ry=".1"/><ellipse class="st4" cx="59.7" cy="94.1" rx="10.9" ry=".1"/><ellipse class="st4" cx="59.7" cy="97.4" rx="10.9" ry=".1"/><ellipse class="st4" cx="59.7" cy="100.6" rx="10.9" ry=".1"/><ellipse class="st4" cx="59.7" cy="103.9" rx="10.9" ry=".1"/><ellipse class="st4" cx="59.7" cy="107.1" rx="10.9" ry=".1"/><ellipse class="st4" cx="59.7" cy="110.4" rx="10.9" ry=".1"/><ellipse class="st4" cx="59.7" cy="113.6" rx="10.9" ry=".1"/><path class="st3" d="M57.2 95.5h4.9v.9h-4.9z"/><g><path class="st4" d="M35.5 31.3c-.4-1.1-.7-2.3-.9-3.4-.2-1.2-.1-2.4.3-3.5.1-.2.6-1.3.8-1.3.1 0-.2 1.1-.1 1.2.6 1.1.8 2.3.7 3.6-.2 1.1-.4 2.2-.8 3.4"/><path class="st6" d="M38.4 41.6c-2.6-.3-2.9-4.5-2.9-4.5l-.1-10.3c-.1-3 1.6-5.5 4.5-5.5h.3c2.8.1 5 2.4 5 5.2.1 2.6.1 5.4 0 6.8-.2 2.8-3.1 3.1-3.1 3.1s-.1.7 0 1.5c.2 3-2.9 3.8-3.7 3.7z"/><path class="st7" d="M42.2 36.3s-1.8 0-3.7-1.3c0 0 .8 2.1 3.7 2v-.7z"/><path class="st6" d="M35.5 28.9s-1.9-.7-2 1.3c0 2 1.9 1.6 1.9 1.5.1-.1.1-2.8.1-2.8z"/><path class="st7" d="M34.9 30.9c-.1.1-.2.1-.3 0-.2-.1-.4-.4-.4-.8 0-.2 0-.3.1-.5l.3-.3c.1 0 .2 0 .2.1v.1-.1s0-.1-.1-.1c0 0-.1-.1-.2-.1-.2 0-.3.1-.4.3 0 .3-.1.5-.1.7 0 .4.2.8.5.9.2 0 .3 0 .4-.2 0 .1 0 0 0 0z"/><path class="st4" d="M44 23.2c.3-.2-.6-1.2-1.4-1.6-1.2-.5-3-.9-4-.6-1.3.4-2.4 1-3.1 2.2-.7 1.2-.9 2.6-.9 3.9 0 .4 0 .8.3 1.2.3.4.8.7.8 1.3 0 .2 0 .4.2.6.4.4.8 0 1-.3.4-.8.5-1.7.5-2.5 0-.6.1-1.3-.1-1.9-.1-.3-.2-.6-.3-1-.1-.3-.1-.7.2-1l.2-.2c.6-.5 1.3-.6 2-.4 1.1.4 3 1 3.5.6.7-.5.9-.9.9-.9l.2.6z"/><path class="st4" d="M38.7 20.7c1.1-.3 2.3-.3 3.3.2.5.3 1 .7 1.2 1.3.2.6-.1 1.3-.7 1.5-.8.3-1.4.2-2.2-.1-.7-.3-1.3-.7-2-.9-.7-.3-1.6-.3-2.3-.1.7-.8 1.6-1.5 2.7-1.9z"/><path class="st5" d="M40.9 20.5s.2.1.5.2.7.3 1.1.7c.4.3.7.7.9 1 .2.3.3.5.3.5s0-.2-.2-.5-.5-.7-.9-1c-.4-.3-.9-.5-1.2-.7-.3-.2-.5-.2-.5-.2z"/><path class="st8" d="m34 109.8-4.7 3.8s2.6 5.8 1.8 6.6l-8-8.6 7.1-6.2 3.8 4.4z"/><g class="st9"><path class="st3" d="M27.3 110.5c-.2-.1-.5-.1-.6.1-.1.2-.1.5.1.6.2.1.6.1.7-.1 0-.2-.1-.5-.2-.6"/></g><g class="st9"><path class="st3" d="m23 111.5.7-.6 7.5 8.6s.1.4-.2.8l-8-8.8z"/></g><path class="st4" d="M29.4 113.7s-.3-.2-.6-.3c-.3-.1-.6 0-.6-.1 0 0 .3-.2.7-.1.4.1.6.5.5.5zM29.8 114.9s-.3-.1-.6-.1-.5.1-.6.1c0 0 .2-.3.6-.3.4.1.7.3.6.3zM29.2 116.4s.1-.3.5-.4c.3-.1.6 0 .6.1s-.3 0-.5.1c-.4.1-.6.3-.6.2zM30.4 112.7c-.1 0-.2-.2-.4-.5-.2-.2-.5-.4-.5-.4 0-.1.3 0 .6.3s.4.6.3.6z"/><path d="m33 110.5-.8.7-4-4.1 1-.9z" class="st10"/><g><path class="st4" d="M31.3 111.9s-.2-.1-.4-.4l-.3-.6c0-.1-.1-.2-.1-.4v-.2c0-.1.1-.2.2-.2s.2 0 .3.1c.1.1.1.1.1.2.1.1.1.2.1.4.1.2.1.5.1.6.1.3 0 .5 0 .5-.1 0 0-.2-.1-.6 0-.2 0-.4-.1-.6 0-.1-.1-.2-.1-.3-.1-.1-.1-.2-.2-.2V110.5c0 .1 0 .2.1.4s.1.4.2.6c.1.2.3.4.2.4z"/></g><g><path class="st4" d="M31.2 111.9s.1-.2.3-.5c.1-.1.3-.3.5-.4.1 0 .2-.1.4-.1.1 0 .3-.1.5.1.1.1.1.2 0 .3 0 .1-.1.1-.1.2l-.3.3c-.2.1-.4.2-.6.2-.4 0-.6-.1-.6-.1h.6c.2 0 .4-.1.5-.2.1-.1.2-.1.3-.2.1-.1.1-.2.1-.2s-.2-.1-.3 0c-.1 0-.2.1-.3.1-.2.1-.4.2-.5.3-.3 0-.4.2-.5.2z"/></g><g><path class="st8" d="m33.7 110.6.5 6s-6 2.1-6 3.2H40l-.3-9.4-6 .2z"/><g class="st9"><path class="st3" d="M37.8 115.9c.2.1.4.3.4.5s-.3.4-.5.4-.4-.3-.4-.6c0-.2.3-.3.5-.3"/></g><g class="st9"><path class="st3" d="M39.9 119.7v-1l-11.4.4s-.4.2-.4.6h11.8z"/></g><path class="st4" d="M34 116.5c0 .1.3.1.6.2.3.2.4.4.5.4.1 0 0-.4-.4-.6-.4-.1-.8 0-.7 0zM32.7 117.1c0 .1.2.1.4.4.2.2.3.5.3.5.1 0 .1-.3-.2-.6-.1-.3-.5-.4-.5-.3zM32.1 118.6c.1 0 .1-.3 0-.6-.2-.3-.4-.4-.5-.4 0 0 .2.2.3.5.1.3.1.5.2.5zM34 115.2c0 .1.3 0 .6 0s.6.1.6.1-.2-.2-.6-.3c-.4-.1-.6.1-.6.2z"/><g class="st10"><path d="M34 114v1.1l5.7-.1v-1.2z"/></g><g><path class="st4" d="M33.9 113.9s.2.1.6 0c.2 0 .4-.1.6-.2.1-.1.2-.1.3-.2.1 0 .1-.1.2-.1.1-.1.1-.2 0-.3-.1-.1-.2-.1-.3-.1h-.2c-.1 0-.3.1-.4.1-.2.1-.4.2-.5.4-.2.2-.3.5-.3.4 0 .1.2-.1.4-.3.1-.1.3-.2.5-.3.1 0 .2-.1.3-.1h.3v.1l-.1.1c-.1.1-.2.1-.3.2-.2.1-.4.2-.6.2-.3.1-.5.1-.5.1z"/></g><g><path class="st4" d="M34 114s.1-.2.1-.6c0-.2 0-.4-.1-.6 0-.1-.1-.2-.2-.4-.1-.1-.2-.3-.4-.3-.1 0-.2.1-.2.2s0 .1-.1.2v.4c0 .2.2.5.3.6.2.3.5.4.5.3 0 0-.2-.1-.4-.4-.1-.1-.2-.3-.2-.5v-.3c0-.1.1-.2.1-.2.1 0 .2.1.2.2.1.1.1.2.2.3.1.2.1.4.1.6.1.3.1.5.1.5z"/></g></g><g><path class="st4" d="M29.3 67s1.3 18.1 1.8 22.2c.3 2.6 1.8 24.8 1.8 24.8l7.7-.2-1.2-35.1V68l-10.1-1z"/></g><g><path class="st4" d="m28.3 105.8 5.1 5.1s15.4-15 16-16.1c.6-1.1.4-15 .4-15l-.4-12.4-11 .6 1.1 12.4L41 91.8l-12.7 14z"/></g><g><path class="st5" d="m42.2 102.2-.2.2-.5.5-1.8 1.8c-1.6 1.5-3.8 3.7-6.4 6.3-1.5-1.6-3.3-3.3-5.1-5.1 1.3-1.4 2.7-3 4.1-4.6 3.1-3.5 6.1-6.7 8.5-9.5-.5-3.9-.8-7.1-1.1-9.4-.1-1.1-.2-2-.3-2.6 0-.3-.1-.5-.1-.7V78.8 79.1c0 .2.1.4.1.7.1.6.2 1.5.3 2.6.3 2.3.7 5.5 1.2 9.4-2.5 2.8-5.4 6-8.5 9.5-1.4 1.6-2.8 3.1-4.1 4.6v-.1c1.8 1.8 3.5 3.6 5.1 5.2h-.1c2.7-2.6 4.9-4.8 6.5-6.3l1.8-1.8.5-.5.1-.2z"/></g><g><ellipse transform="rotate(-63.794 42.237 92.238)" class="st5" cx="42.2" cy="92.2" rx=".1" ry="1.2"/></g><g><path class="st5" d="M40.3 78.1h-.5c-.3 0-.7 0-1.2.1h-.1v-2.4c0-1.1-.1-2.1-.1-2.8v-1.1.3c0 .2 0 .5.1.8.1.7.1 1.7.1 2.8v2.3l-.1-.1h1.2c.4.1.6.1.6.1z"/></g><g><path class="st5" d="M39.8 72.4h.1c.1 0 .2.1.3.2.1.1.2.3.2.5s-.2.4-.4.5c-.2.1-.5 0-.6-.1-.1-.2-.1-.3-.1-.5 0-.1.1-.2.2-.3l.1-.1s-.2.1-.2.4c0 .1 0 .3.1.4.1.1.3.2.5.1s.3-.2.3-.4-.1-.3-.1-.4c-.3-.3-.4-.3-.4-.3z"/></g><g><path d="M35.4 37.3s2 2.2 7.2.4l3.3 4.8L49.3 70l-11.1 1.8-8.7-1.4 2.8-27.9 3.1-5.2z" style="fill:#e0e0e0"/></g><g><path class="st12" d="M35.8 37.6c.4.9 1.4 3.1 1.4 3.1s-2.6 17.1-2.9 19.9c-.3 3 1.5 13.6 1.5 13.6l-9.1-1.4 2.5-28-1.2-5.4s2.2-.9 4.4-1.4l1.9-.3.5-.9.4-.5.6 1.3z"/><path d="M36.3 58.5c-1.1 0-4.3.9-5.4 1-1.1.1-1.9.3-2.8.9l-.1 1.5c.6.3 1.4.4 2.1.5.7.1 1.5 0 2-.4.3-.3.5-.6.9-.8.3-.2.6-.5 1-.4 2.5.5 3.2-1.8 2.3-2.3z" class="st10"/><path class="st4" d="M34.7 37.9s0 .1.1.3c0 .2.1.4.2.7.1.6.3 1.4.6 2.3.1.3.2.6.2.9h-.1l.3-.9c.1-.3.3-.5.5-.6.1-.1.2-.1.3-.1.1 0 .2 0 .2.1.1.1.1.2.1.2s0-.1-.1-.1c-.1-.1-.3-.1-.4 0-.2.1-.3.4-.4.6l-.3.9-.1.2-.1-.2c-.1-.3-.1-.6-.2-.9-.2-.9-.4-1.7-.5-2.3-.1-.3-.1-.5-.1-.7-.2-.3-.2-.4-.2-.4z"/></g><g><path class="st13" d="m29.2 61 2.3.7s.7 1.7.9 3.7c.1 2-.7 16.5-.7 16.5l-7.4-.3-.2-.7c-.1-.3-.2-.7-.1-1.1.2-2.4.5-10.6 2.3-15.5.8-2.2 2.9-3.3 2.9-3.3z"/><path class="st13" d="M31.8 38s.7 1.3.6 4.2c-.1 2.9-4.1 23.1-4.1 23.1l2.6.2s2.6-16.8 2.7-18.5c.1-1.7 1.1-7.8 0-9.2 0 .1-1.1-.4-1.8.2zM27.4 62.5s-2.7 3.4-3.6 9.7l1.2.3 2.4-10z"/><path class="st4" d="M28.9 64v.1c0 .1 0 .2-.1.3 0 .3-.1.7-.2 1.3-.2 1.1-.3 2.6-.6 4.2l-.3 1.2c-.1.4-.2.8-.5 1.1-.2.3-.6.5-.9.5-.3 0-.6-.1-.9-.1-.5-.1-1-.2-1.3-.3-.1 0-.3-.1-.3-.1h-.1.5c.3 0 .7.2 1.3.2.3 0 .6.1.9.1.3 0 .6-.2.8-.4.2-.3.3-.6.4-1l.3-1.2c.3-1.6.5-3.2.6-4.2.1-.5.2-1 .2-1.3 0-.1.1-.3.1-.3l.1-.1z"/><path class="st4" d="M31.6 61.8v.4c0 .3-.1.6-.1 1.1 0 .2 0 .5-.1.7 0 .3 0 .6-.1.9-.1.3-.2.6-.5.8-.3.2-.7.3-1 .2-.4-.1-.7-.3-.8-.7-.1-.3-.1-.7-.1-1 .1-.6.1-1.1.2-1.6.1-.4.2-.8.2-1.1.1-.2.1-.4.1-.4s0 .1-.1.4c0 .3-.1.6-.2 1.1-.1.4-.1 1-.2 1.6 0 .3 0 .6.1.9.1.3.4.5.7.6.3.1.7 0 .9-.2.3-.2.4-.5.5-.7.1-.3.1-.6.1-.8 0-.3.1-.5.1-.7.1-.4.1-.8.1-1.1l.2-.4zM31.7 81.9l-.3-.3-.7-.7c-.3-.3-.7-.7-1.1-1-.2-.2-.4-.4-.7-.6-.2-.2-.5-.4-.8-.5h-.4c-.1 0-.3.1-.4.2-.2.2-.5.4-.7.6-.4.4-.8.7-1.2 1-.3.3-.6.5-.8.7-.2.2-.3.2-.3.2l.3-.3c.2-.2.5-.4.8-.7.3-.3.7-.6 1.1-1 .2-.2.4-.4.7-.6.1-.1.3-.2.4-.3.2-.1.3-.1.5 0 .3.1.6.3.9.5.2.2.5.4.7.6.4.4.8.7 1.1 1.1.3.3.5.6.7.8.1.2.2.3.2.3z"/><ellipse transform="rotate(-82.068 28.71 72.39)" class="st4" cx="28.7" cy="72.4" rx="6.4" ry=".1"/><path class="st4" d="M30.7 64.7v-.2c0-.1-.1-.2-.2-.3-.1-.1-.4-.2-.6-.1-.2.1-.4.3-.4.6s.2.5.4.6c.2.1.4 0 .6-.1.1-.1.2-.2.2-.3v-.2.2c0 .1-.1.3-.2.4-.2.1-.4.2-.7.1-.3-.1-.5-.4-.5-.7 0-.3.2-.6.5-.7.3-.1.5 0 .7.1.2.1.2.3.2.4v.2z"/></g><g><path class="st6" d="m62.4 65.3 3.7 2.9-.4 2.9-.1.4-1.3.8h-2.2s-.4-.9.5-.8c0 0-.4-.6.7-.8 1.1-.1 1.3-.5 1.3-.5l-.1-.5-.4-.5-.4-.4-2.1-2.4.8-1.1zM55.4 61.9l4.3 4.5 2.6-1-3.2-6.5-2.6-.9-1.1 2v1.9z"/><path class="st6" d="M59.6 66.2s.7 1.1 1.3 1.7c.6.6 1.6 1.1 1.6 1.1s.9 2.3 1.5 2.2c.6-.1.8-.4.5-1-.3-.6-1.1-2.9-1.1-2.9L62 64.5l-2.4 1.7z"/></g><g><path class="st12" d="M48.6 39.5s1.6.5 2.5 2.6c.9 2.1 4.6 9.8 4.6 9.8l3.9 7s-1.8 0-3.1 1-1.2 2.3-1.2 2.3-1.1-.2-1.3-.9c-.2-.7 0-1.3 0-1.3l-1.4-1.8-.8-1.7-2.7-4.5-1.7-7 1.2-5.5z"/><path class="st12" d="M50.8 75.2s-1.4-14.7-1.4-14.9c.1-.2-.2-8.6 0-8.7.2-.1-.9-12-.9-12L43.3 38h.1l-1.2-1.3s-1.5 4.9-1.4 4.9c.4 1.7 1.9 26.6 1.9 26.6 0 .2.6 7 .6 7h7.5z"/><path class="st4" d="M49.2 52.3s-.1.1-.2.1c-.1.1-.3.2-.5.4-.6-.3-1.6-.8-2.8-1.3-.1-.9-.1-1.9-.2-3-.1-1-.1-2-.2-2.8 1.2-.3 2.3-.1 3 0 .4.1.6.2.8.2.2.1.3.1.3.1s-.1 0-.3-.1c-.2-.1-.5-.1-.8-.2-.7-.1-1.8-.2-2.9 0v-.1c.1.9.1 1.8.2 2.8.1 1.1.1 2.1.2 3 1.2.6 2.1 1.1 2.8 1.4.2-.1.4-.3.5-.3l.1-.2zM49.3 43.7V52.9 43.7zM57.5 56.8s-.3.1-.7.3c-.4.2-.9.5-1.4 1-.5.5-.8 1-1 1.4-.2.4-.3.7-.3.7V60c0-.1.1-.3.2-.5.2-.4.5-1 1-1.5s1-.8 1.5-1c.2-.1.4-.1.5-.2h.2zM56.3 56.5s-.6.3-1.3.8c-.7.5-1.1 1.1-1.1 1.1l.2-.4c.2-.2.4-.5.8-.8.3-.3.7-.5 1-.6.2 0 .4-.1.4-.1zM43.4 37.9v.3c0 .2 0 .5-.1.9-.1.7-.2 1.8-.4 2.9-.1.4-.1.8-.2 1.2v.2l-.1-.2c-.2-.4-.4-.7-.6-1-.1-.1-.2-.3-.3-.4l-.3-.3c-.1-.1-.2-.1-.3-.1-.1 0-.2.1-.2.1-.1.1-.1.2-.1.2s-.1-.1 0-.2c0-.1.1-.1.2-.1s.2 0 .4.1l.3.3c.1.1.2.3.3.4.2.3.4.6.6 1h-.1c.1-.4.1-.8.2-1.2.2-1.1.3-2.2.4-2.9.1-.4.1-.6.1-.9.2-.2.2-.3.2-.3z"/><path d="M42.6 43.1c-.1.4-.2.7-.3 1.1-.3-.7-.5-1.4-.8-2.1 0-.1-.1-.3-.2-.4-.1-.1-.2-.2-.4-.2 0 0 .2-.3.5 0 .5.3 1.2 1.6 1.2 1.6zM49.4 52.4c.7-2.4.5-5.3-.1-7.7l.1 7.7z" class="st10"/><path class="st4" d="M49.3 46.9s-.2 0-.6-.1c-.4 0-.8-.1-1.4-.1h-2s.2-.1.6-.1c.4 0 .9-.1 1.4 0 .5 0 1 .1 1.4.2.4 0 .6.1.6.1zM49.6 64.1s-.1 0-.2-.1-.4-.2-.6-.3c-.5-.3-1.2-.8-2-1.3-.7-.5-1.4-1.1-1.8-1.5l-.5-.5-.2-.2.2.2.5.5c.5.4 1.1.9 1.8 1.5.7.5 1.4 1 1.9 1.3.2.1.4.3.6.4h.3z"/></g><g><path class="st12" d="M28.4 39.3s-1.1.2-2.2 2.5c-1.1 2.2-3.8 9.7-4 10.2l5.6 3.7 3.2-9.4-2.6-7z"/><path class="st12" d="M31.4 59.5v-3.2l-3.6-1.2.7-2.3-5.6-2.6s-2.5 6.5-2.5 7.8c0 .4 1 2.7 3.1 2.9 1.4.1 4.4.3 6.5.4.9 0 1.6-.9 1.4-1.8z"/><ellipse transform="rotate(-72.59 29.178 51.52)" class="st4" cx="29.2" cy="51.5" rx="3.9" ry=".1"/><path class="st4" d="M29.5 55.7s-.1 0-.2-.1c-.1 0-.4-.1-.6-.2l-.9-.3c-.4 0-.8-.1-1.2-.1-.8-.1-1.6.1-2.1.2-.5.2-.8.4-.8.3 0 0 .1-.1.2-.1.1-.1.3-.2.6-.3.5-.2 1.3-.4 2.2-.3.9.1 1.6.4 2.1.6.3.1.5.2.6.2l.1.1z"/><path class="st4" d="M26 53.1s.2 0 .4.1c.3.1.6.3.9.6.3.3.5.6.6.9.1.3.1.5.1.5s-.2-.6-.8-1.2c-.6-.6-1.3-.8-1.2-.9zM30.3 44.7v-.8c0-.5-.1-1.2-.4-1.8-.3-.7-.6-1.3-.9-1.6-.3-.4-.5-.6-.5-.6s.1 0 .2.1.3.2.4.4c.2.2.3.4.5.7.2.3.3.6.5.9.1.4.2.7.3 1 0 .3.1.6.1.9v.6c-.2.1-.2.2-.2.2z"/><path d="M25.6 54.4c-.8 0-1.7.3-2.3.9-.1 0-.1.1-.1.2s.1.2.2.2.2 0 .3-.1c1.3-.7 2.8-.8 4.2-.3l.1-.1c-.7-.6-1.5-.8-2.4-.8z" class="st10"/><path class="st4" d="M31.4 60.2c0 .1 0 .2-.1.3-.1.2-.3.5-.6.7-.2.1-.4.2-.6.1h-.7c-.5 0-1.1 0-1.6-.1-1.2-.1-2.2-.1-3-.2-.4 0-.7-.1-.9-.1-.2 0-.3 0-.3-.1h.3c.2 0 .5 0 .9.1.8 0 1.8.1 3 .2.6 0 1.1.1 1.6.1h.7c.2 0 .4 0 .6-.1.3-.2.5-.4.6-.6 0-.1.1-.2.1-.3z"/></g><g><path class="st4" d="m32.2 60 3.1.1c.3 0 .6-.3.7-.7l2.5-8.6c.2-.6-.2-1.1-.7-1.1l-4.1-.3c-.7 0-1 .3-1.1.8L30.9 57c-.4 1.5.3 3 1.3 3z"/><path class="st6" d="m29.5 55.9.8-1.8 1.4-.5-.4 1.7c.5.3 1.3.4 1.8.1.5-.3 2.3-2.1 2.6-1.9.3.2.6.6.3 1s-2 1.6-1.7 2c.4.4 2.3-1.2 2.9-1.1.6.1.9.5.6.7-.3.2-1.1 1-1.3 1.4 0 .4.2 1 .1 1.2-.3.2-1.2.5-1.4.5-.1 0-.8.3-1.5.6-.8.3-1.6.3-2.4.1l-.3-.2c-.6-.2-1-.8-1-1.4V57l-.5-1.1z"/><path class="st5" d="M31.6 55.5s.1-.1.1-.4c.1-.3.2-.7.3-1.1.1-.5.3-1.1.4-1.7.1-.3.2-.7.3-1 .1-.3.1-.7.4-1 .2-.3.6-.3 1-.3s.7.1 1 .1c.7 0 1.2.1 1.8.1.5 0 .9.1 1.2.1h.4s-.2 0-.4-.1c-.3 0-.7-.1-1.2-.1s-1.1-.1-1.8-.2c-.3 0-.7-.1-1-.1h-.6c-.2 0-.4.1-.5.3-.1.2-.2.3-.3.5-.1.2-.1.4-.1.5-.1.3-.2.7-.2 1-.2.6-.3 1.2-.4 1.7-.1.5-.2.9-.3 1.2-.1.4-.1.5-.1.5z"/><g><circle class="st3" cx="35.7" cy="51.4" r=".3"/></g></g></g></g></g></switch></svg>