<svg version="1.1" id="Capa_1" xmlns="http://www.w3.org/2000/svg" x="0" y="0" viewBox="0 0 512 512" style="enable-background:new 0 0 512 512" xml:space="preserve"><style>.st0{fill:#e3eaff}.st1{fill:#d7d8dc}.st3{fill:#fff}.st4{fill:#263238}.st12{fill:#da9500}.st13{fill:#be0811}.st14{fill:#ecedef}.st15{fill:#68040e}.st17{fill:#211915}.st20{fill:#fe9875}.st21{fill:#868589}.st22{fill:#f1ebbb}.st23{fill:#717175}.st24{fill:#5b5b5f}.st26{fill:#b5076b}.st27{fill:#c16b5b}.st28{fill:#8e4136}.st29{fill:#f08e75}.st31{fill:#54040c}.st33{fill:#100303}.st35{fill:#d3c889}.st36{fill:#66311e}.st37{fill:#6f43b5}.st38{fill:#422014}</style><switch><g><path class="st0" d="M192.8 205.3c1.4-10.2-12.9-18.5-23.7-19.4-5.1-.4-10.5.4-15.3-1.3-10.5-3.7-14.8-17.3-25-21.6-7.7-3.2-16.5-.4-24 3.4s-14.8 8.5-23.2 9c-7.2.5-15.1-2.2-21.5 1.3-4.7 2.6-7.2 8.1-11.6 11.3-4.3 3.1-9.8 3.8-15.1 4.1-5.3.3-10.8.3-15.6 2.5-4.8 2.2-8.8 7.3-7.8 12.5l182.8-1.8zM509.7 298.5c1.4-10.2-12.9-18.5-23.7-19.4-5.1-.4-10.5.4-15.3-1.3-10.5-3.7-14.8-17.3-25-21.6-7.7-3.2-16.5-.4-24 3.4s-14.8 8.5-23.2 9c-7.2.5-15.1-2.2-21.5 1.3-4.7 2.6-7.2 8.1-11.6 11.3-4.3 3.1-9.8 3.8-15.1 4.1-5.3.3-10.8.3-15.6 2.5-4.8 2.2-8.8 7.3-7.8 12.5l182.8-1.8zM251.4 52.4c1-6.9-8.8-12.7-16.2-13.3-3.5-.3-7.2.3-10.5-.9-7.2-2.5-10.1-11.8-17.1-14.8-5.3-2.2-11.3-.2-16.4 2.3-5.1 2.6-10.1 5.8-15.8 6.2-5 .3-10.3-1.5-14.7.9-3.2 1.8-4.9 5.5-7.9 7.7-2.9 2.1-6.7 2.6-10.3 2.8-3.6.2-7.4.2-10.6 1.7-3.3 1.5-6 5-5.3 8.5l124.8-1.1z"/><path class="st1" d="M282.3 61.9c12.9-15.1 46.5-5.6 69.6 6.7 0 0 15.8 7.5 21.7 11.3h.2l53.8-6.7c4.4-.5 8.8.2 12.7 2.2l4.4 2.3c2.2 1.1 2.1 4.4-.2 5.3l-39.6 17v.5c21.1 13.8 39.1 25.7 39.1 25.7.2.1.4.3.6.4 7.4 4.7 16.3 6.5 24.9 4.9l21-3.7c1.1-.2 2.2-.1 3.2.3 3.7 1.5 4.4 6.4 1.4 9l-24.3 20.3c-3.8 3.2-9.1 3.9-13.6 1.8l-11.4-5.2-57.5-27.4 6.6 32.7c.2 1.3-.8 2.6-2.2 2.5l-2.7-.1c-3.7-.1-7.1-2.2-8.9-5.4L357.9 112 290 79.8c-9-4.2-12.2-12-7.7-17.9z"/><ellipse class="st14" cx="87.4" cy="417.8" rx="73.3" ry="4.8"/><ellipse transform="rotate(-30.922 84.978 135.523)" class="st15" cx="85" cy="135.5" rx="15.6" ry="10.3"/><ellipse transform="rotate(-29.681 90.33 141.275)" class="st15" cx="90.3" cy="141.3" rx="32.5" ry="12.2"/><path d="M109.2 142.7c-.2.1-.3.3-.5.4-3.5 3-7.8 6-12.6 8.8-14.9 8.5-29.4 11.3-32.3 6.2 0 0 0-.1-.1-.1-.2-.4-.3-.7-.4-1.2-.7-4 4.1-10.3 12-16.5 1.5-1.2 3.1-2.3 4.8-3.5 1.7-1.2 3.5-2.3 5.5-3.4 1.5-.9 3-1.6 4.4-2.4 1.5-.7 2.9-1.4 4.4-2 1.2-.5 2.3-1 3.5-1.4 9.9-3.7 17.9-4 20-.4 2 3.4-1.7 9.4-8.7 15.5z" style="fill:#49050f"/><path class="st17" d="M109.5 141.2c0 .5-.1 1-.2 1.5-.5 2.2-1.5 4.4-2.2 6.6l-.6 2.1c-.7 3.5-.7 7-.4 10.6.3 4.2 1.3 8.2.5 12.4-.1.3-.1.6-.2.9-1.1 4.1-3.9 7.9-7.9 9-2.1.6-4.4.5-6.5.8-6.9 1.1-12.5 6.9-19.5 7.2-3.5.2-7.1-1.2-9.6-3.7-1.5-1.5-2.6-3.3-3.7-5.1-1.4-2.3-2.8-4.6-3.6-7.1-1.8-5.5-.3-11.9 3.6-16.2 1.3-1.4 2.8-2.5 4.4-3.6.4-.2.7-.5 1.1-.7 3.3-2.2 6.6-4.3 8.4-7.7 1.4-2.5 1.7-5.4 2.5-8.1 3-2.4 6.5-4.7 10.3-6.8 3-1.7 6-3.2 8.9-4.4 1.2-.5 2.3-1 3.5-1.4 2.2.5 4.3 1.5 6.2 2.8 2.7 1.9 4.7 4.9 5.2 8.2-.2.9-.1 1.8-.2 2.7z"/><path d="M45.5 385.1s6.4 12.8 9.9 17.2c3.5 4.4.4 7.9.4 7.9s-15.9-12.9-19.1-19.7l-2.4.8s-6.5-5.5-6.4-5.6c.1-.1 3.7-5.6 9.1-8.1l8.5 7.5z" style="fill:#1a0f24"/><path d="M114.4 250.3s10.1 64.4 3.8 74.1c-6.3 9.7-72.8 60.6-72.8 60.6s-6.4-3-8.5-7.5c0 0 58.3-58 57.9-64.9-.4-6.9-13.8-61.3-13.8-61.3l33.4-1z" style="fill:#fe906b"/><path class="st17" d="M118.3 401.6s14.1 2.4 19.7 2.1c5.6-.3 6.6 4.4 6.6 4.4s-19.8 5.2-27.2 3.8l-.7 2.4s-8.2 2-8.3 1.9c0-.1-2.4-6.3-1.2-12.1l11.1-2.5z"/><path class="st20" d="M93.2 360c5.6 15.2 10.6 30.2 13.8 44 0 0 6.1 1 11.2-2.4l-8-46.5-17.7-103.7H60c-.9 25.9 18.3 68 33.2 108.6z"/><path class="st21" d="M114.1 249s5.5 31.8 8 55.1c0 0-8.9 1.5-24.7 1.7l-8.3-56.4 25-.4z"/><path class="st21" d="M103.5 306.3c-9.2 2.9-17 4.2-22.8 4.7-.9.1-1.8.2-2.6.2-5.3.3-8.3 0-8.3 0-12.3-30.5-10.1-60.9-10.1-60.9h37l6.8 56z"/><path class="st22" d="M102.9 295.5c-1.1-7.6-2.1-15.2-2.8-22.9-.2-2.2-.4-4.4-.6-6.5 0-.5-.9-.4-.8.2l.3 3.9c-.6-1-1.2-1.9-1.8-2.9-.1-.2-.4-.3-.6-.2-.2.1-.3.4-.2.6.9 1.3 1.7 2.7 2.6 4 0 .1.1.1.2.2.6 5.8 1.2 11.6 2 17.4.3 2.2.6 4.3.9 6.5.1.4.9.3.8-.3z"/><path class="st3" d="M80.7 311c-.9.1-1.8.2-2.6.2-1.4-3.8-2.7-7.6-3.9-11.4-4.9-16.1-7.7-32.8-8.3-49.5h2.5c.1 4.3.4 8.5.8 12.8 1.8 16.4 5.7 32.5 11.5 47.9z"/><g><path class="st20" d="M163.9 246.1c.4-1.2-4-2.3-4-2.3s9.6 2.1 10 .6c.4-1.5-9-3-9-3s11.5 1.8 11.8.2c.3-1.6-11.4-3-11.4-3s9.2.2 9.3-1.4c.1-2.2-19.6-1.1-19.6-1.1l-.8 7.7c-.2-.1 13.3 3.5 13.7 2.3z"/><path class="st20" d="M150.8 236s7.5-5.8 9.2-4.9c1.6.9-3.5 6-3.5 6l-5.7-1.1zM104 177.7c6.8 3.4 12.2 36 15.9 41.9 3.7 5.9 30.9 16.4 30.9 16.4s1.8 7.1-.6 7.7c0 0-34.4-6.6-40.6-17.2-3.3-5.5-7.6-27.9-7.6-27.9l2-20.9z"/></g><g><circle class="st17" cx="39.2" cy="413.6" r="4.8"/><circle class="st17" cx="79" cy="413.6" r="4.8"/><path class="st23" d="M90 410.2H34.9c-3.7 0-6.7-3-6.7-6.7v-87.4c0-3.7 3-6.7 6.7-6.7H90c3.7 0 6.7 3 6.7 6.7v87.4c.1 3.7-3 6.7-6.7 6.7z"/><path class="st24" d="M79.9 339.4h-3.1v-62.7c0-1.7-1.3-3-3-3h-28c-1.7 0-3 1.3-3 3v62.7h-3.1v-62.7c0-3.3 2.7-6.1 6.1-6.1h28c3.3 0 6.1 2.7 6.1 6.1v62.7z"/><path class="st24" d="M81.7 410.2H26.5c-3.7 0-6.7-3-6.7-6.7v-87.4c0-3.7 3-6.7 6.7-6.7h55.2c3.7 0 6.7 3 6.7 6.7v87.4c0 3.7-3 6.7-6.7 6.7z"/><path class="st23" d="M76.2 351.9H32.1c-3 0-5.4-2.4-5.4-5.4v-22.3c0-3 2.4-5.4 5.4-5.4h44.1c3 0 5.4 2.4 5.4 5.4v22.3c-.1 3-2.5 5.4-5.4 5.4z"/></g><g><path class="st13" d="M104 177.7c5 1.7 13.5 29.4 13.5 29.4s-3.8 3.8-12.6 5.1l-4.5-12.8 3.6-21.7z"/><path class="st13" d="M114.7 251.6c-39.7 6.5-54.7-.2-54.7-.2 0-.1.6-2.6 1.5-6.2.2-.8.4-1.6.6-2.5.1-.2.1-.5.2-.7.2-.9.5-1.9.7-2.9.2-.8.4-1.6.6-2.5 3.2-12.7 7.4-28.9 7.4-28.9s.5-29.3.6-29.8v-.2l4.6-1.5.8-.2 5.4-1.8h10.7l5.4 1.8 1.2.4 4.3 1.4c6.5 15.2.7 30.4.7 30.4l6.5 28 .6 2.5.4 1.7.4 1.9.6 2.5 1.5 6.8z"/><path d="M114.7 251.6c-39.7 6.5-54.7-.2-54.7-.2 0-.1.6-2.6 1.5-6.2.2-.8.4-1.6.6-2.5.1-.2.1-.5.2-.7.8-.2 1.7-.3 2.5-.3 2.2.1 4.3 1.2 5.6 2.9 3.6-2.7 9.3-2.4 12.5.9 1.8-2.1 4.4-3.5 7.2-3.7 2.8-.2 5.6.9 7.6 2.8 2.7-2.1 5.9-3.8 9.3-4.4 1.7-.3 3.5-.2 5.2.2l.4 1.9.6 2.5 1.5 6.8z" style="fill:#a30c1a"/><path class="st20" d="M71.7 177.7c-9 4.3-23.3 34.4-24.8 42.6-2.1 11.2 6.3 48.7 6.3 48.7s6.6 1 10.3-.9c0 0-2.5-41.8-2.3-45.3.4-4.9 11.8-18.9 11.8-18.9l-1.3-26.2z"/><path class="st20" d="M53.1 269s-2.7 7.4-1.4 9.8c1.3 2.4 12.8 3.6 14.7 1.4 2.1-2.4-3-12.2-3-12.2l-10.3 1z"/><path class="st13" d="M71.7 177.7c-7.7 3.1-22.3 29.4-22.3 29.4s6.5 6.8 17.2 9.7l9-13.3-3.9-25.8z"/><g><path class="st26" d="M77.6 203.7c-.8.1-1.6.3-2.4.6.6-.8 1.1-1.5 1.7-2.2.3-.4-.3-1-.6-.6-2.3 2.7-4.3 5.7-5.9 8.8-.3.5.5.9.7.4 1-1.8 2-3.5 3.2-5.2 1.1-.5 2.3-.8 3.5-1 .2 0 .4-.3.3-.5-.1-.3-.3-.4-.5-.3zM107.4 196.5c0-.5-.9-.5-.8 0 .2 3.5-.4 6.9-1.8 10.1-.2.5.5.9.7.4 1.4-3.3 2.1-6.9 1.9-10.5z"/></g></g><g><path class="st20" d="M105.5 155c0 .2-.1.4-.1.6-.7 3.6-2.2 5.9-4.2 7.6-1.5 1.3-2.8 2.1-3.9 2.9l-.1.1c-2.4 1.7-3.8 3.3-3.8 9-1.8 4.5-8.7 5.1-10.9 0 .1-6.4-1.1-11.9-2.2-15.4-.3-.9-.5-1.7-.8-2.4-.4-1.2-.7-1.9-.7-1.9s.3-14 2.3-17.7c4.9-9 22.2-5.9 23.5 1.2 1.3 7.2 1.5 12.3.9 16z"/><path class="st17" d="M107.1 143.5c-.3.4-.9.2-1.4 0-2.3-.9-4.4-2.3-6.1-4.2-.5-.5-.9-1.1-1.3-1.6-.1-.2-1.2-1.5-1-1.8-2.2 4-6.4 6.8-10.9 7.4-.5 3.6-2.5 6.9-5.4 9-.7.5-1.6 1-2.5.7-1-.4-1.4-1.6-1.4-2.7-.3-3.7.8-7.3 2-10.8.3-.9.7-1.9 1.1-2.8 1.7-1.2 3.5-2.3 5.5-3.4 1.5-.9 3-1.6 4.4-2.4 1.5-.3 3.1-.4 4.6-.5 2.5-.1 5.1.2 7.3 1.4 2 1.2 3.4 3.1 4.2 5.2.5 1.4.8 2.9.9 4.4.1.7.3 1.7 0 2.1z"/><path class="st27" d="M98.7 154.7c.1 0 .1 0 .1-.1.3-.9 0-1.3-.4-1.4-.3-.1-.7 0-1.1.2-.1 0-.1.1 0 .2 0 .1.1.1.2 0 .4-.2.7-.3.9-.2.3.1.3.4.2 1 0 .2 0 .3.1.3z"/><path class="st28" d="M95 156.1c.3-.6 1.4-.1 2.5-.1s2.2-.5 2.5.1c.4.8-.6 2.7-2.5 2.7-1.9-.1-2.9-2-2.5-2.7z"/><path class="st27" d="M95.2 157.3c.4 0 .8-.1 1.2-.1 1.4 0 2.6.3 3.1.7-.5.4-1.1.8-1.9.8-1.2 0-2-.6-2.4-1.4z"/><path class="st3" d="M97.6 156.7c-1.1 0-2-.3-2.3-.8.5-.2 1.3.2 2.3.2 1 0 1.8-.3 2.3-.2-.4.5-1.3.8-2.3.8z"/><path class="st3" d="M98.1 152.4c-2.2 0-6.8 1.5-8.8 2.2-.1-.1-.2-.1-.3-.1-3-.8-6-1.6-9-2.6-1-.3-1.5 1.3-.5 1.6 2.9.9 5.9 1.7 8.9 2.5.1 1.1.1 2.9 0 4.5-3.3-1.9-6.4-3.9-9.5-6-.9-.6-1.7.8-.9 1.5 3.3 2.3 6.7 4.4 10.1 6.4.5.6 3 3.6 8.8 3.9l.1-.1c1.1-.8 2.4-1.6 3.9-2.9 2-1.7 3.5-4 4.2-7.6-1.1-1-4.7-3.3-7-3.3z"/><g><ellipse transform="rotate(-39.986 77.467 153.742)" class="st20" cx="77.5" cy="153.8" rx="3.3" ry="4.2"/><path class="st27" d="M75.8 151.4c.6-.3 1.5-.3 2.2 0 .4.2.7.4.9.7.3.4.3.8.2 1.2-.1.3-.4.5-.6.7-.2.1-.3.3-.4.4-.1.2-.1.6.1.8.2.2.5.3.8.2.1-.1.3 0 .4.1.1.1 0 .3-.1.4-.2.1-.3.1-.5.1-.3 0-.7-.1-.9-.4-.4-.4-.4-1-.2-1.4.1-.2.4-.4.5-.6.2-.2.4-.3.4-.5.1-.2 0-.4-.1-.6-.1-.1-.1-.2-.2-.2-.3 0-.6.1-.8.3-.2.2-.3.5-.3.8 0 .2-.1.3-.2.3s-.3-.1-.3-.2c-.1-.5.1-1 .4-1.3.1-.1.3-.2.4-.3-.5-.1-1-.1-1.3.1-.5.2-.8.9-.6 1.4.1.1 0 .3-.1.4-.1.1-.3 0-.4-.1-.5-.9-.1-1.9.7-2.3z"/></g></g><g><ellipse class="st14" cx="399.6" cy="418.3" rx="73.3" ry="4.8"/><path class="st17" d="M376.4 406s-13.1 5.4-18.6 6.3c-5.5 1-5.4 5.7-5.4 5.7s20.3.7 27.1-2.2l1.2 2.2s8.4.1 8.4 0 .9-6.6-1.4-12h-11.3zM421.4 406s13.1 5.4 18.6 6.3c5.5 1 5.4 5.7 5.4 5.7s-20.3.7-27.1-2.2l-1.2 2.2s-8.4.1-8.4 0-.9-6.6 1.4-12h11.3z"/><path class="st29" d="M376.2 406.1s.8.3 3.6.4h.9c1.7 0 4 0 6.9-.5 0 0 4.8-63.2 14-122.8.5-3.4 1.1-6.9 1.6-10.2.6-3.8 1.3-7.6 1.9-11.3.3-1.5.5-3 .8-4.5h-29s-.6 5-1.2 16.7c-.9 20.4-1.8 61.7.5 132.2z"/><path class="st29" d="M401.3 257.1c.2 1.6.4 3.1.6 4.7.5 3.7.9 7.4 1.4 11.1.4 3.7.8 7.4 1.2 11.2 6 59.7 5.7 122 5.7 122 9.1 1.6 11.6 0 11.6 0 8.4-70.3 9.5-111.5 9.3-132.2-.1-11.7-.7-16.8-.7-16.8h-29.1z"/><g><path class="st24" d="m404.4 256.4-.6 21.9v.1l-1.8 62-.1 2.6-.1 3.9c-14.5 1.8-29.4 0-29.4 0 0-1.3-.1-2.6-.1-4v-2.5c-.3-41.7 4-83.9 4-83.9h28.1z"/><path class="st24" d="M435.5 339.2v2.5c0 1.4-.1 2.7-.1 4 0 0-2.2.4-6 .8-.8.1-1.6.2-2.5.2-5.2.4-12.5.6-20.8-.2l-.1-4-.1-2.5-2-61.8v-.1l-.7-21.9 19.8-.2 2.5-.1 4.9-.1c.1.1 5.5 48.9 5.1 83.4z"/><path class="st17" d="M372.3 340.3v2.5c9.8.7 19.7.8 29.6.1l.1-2.6c-9.9.8-19.8.8-29.7 0zM429.4 339.9c0-21.6-.8-43.3-2.3-64.9-.4-6.3-1-12.7-1.5-19 0-.4-.1-.9-.1-1.3-.2-1.6-2.7-1.6-2.5 0 0 .5.1.9.1 1.4 2.1 23.5 3.4 47.1 3.7 70.7.1 4.4.1 8.9.1 13.4-7 .5-14 .5-21 .1l.1 2.5c7 .5 14 .4 20.9-.1v4.2c.9-.1 1.8-.1 2.5-.2v-4.2c2-.2 4.1-.4 6.1-.7v-2.5c-2 .2-4.1.4-6.1.6z"/></g><g><path class="st29" d="M337.1 250.3c-.8-1 3-3.5 3-3.5s-8.4 5.2-9.3 3.9c-.9-1.3 7.6-5.9 7.6-5.9s-10.3 5.7-11.1 4.2c-.8-1.4 9.9-6.8 9.9-6.8s-8.7 3.3-9.3 1.8c-.9-2.1 18.3-7.8 18.3-7.8l3.4 7.1c-.1 0-11.7 7.9-12.5 7z"/><path class="st29" d="M346.1 236.2s-9.1-3-10.4-1.6c-1.3 1.4 5.4 4.5 5.4 4.5l5-2.9z"/><path class="st29" d="M387.2 173.5c-9.9 2.8-12.2 41.3-13.5 43.6-1.3 2.3-27.6 19.1-27.6 19.1l3.4 7s31.6-15.1 33.1-17c1.5-1.9 7-25.5 7-25.5l-2.4-27.2z"/><g><path d="M374.7 257.1c16.4 6.2 56.7.3 56.7.3-.2-3.5-9.9-50-9.9-50l-1.2-33.9-8.5-2.8-.2-.1-2.3-.7h-10.9l-2.6.8-.2.1-8.3 2.7c-5.8 8.3-.3 32.3-.3 32.3l-12.3 51.3z" style="fill:#434142"/><path class="st14" d="M415.3 227.4c-.2-2-4.9-47.9 1.6-55.4.7-.8 1.5-1.2 2.4-1.2h.1c9.3 0 13.4 46.4 14.2 55.7l-1.7.1c-1.6-21-6.5-54.2-12.5-54.2-.4 0-.8.2-1.2.6-5 5.7-2.6 41-1.2 54.1l-1.7.3z"/><path class="st14" d="M411.1 225.3c1-1.6 23.6-2 24.5-1.6 1 .4 9.3 23.4 8.5 25.1-.9 1.7-33.5 3.7-34.9 3.4-1.4-.2.3-24.4 1.9-26.9z"/><path class="st1" d="M414.2 225.8s-1.4 11.3-.5 11.6c.8.3 24.6-1.4 25.5-2.2.8-.9-2.8-10.5-3.4-10.7s-20.1 0-21.6 1.3z"/><g><circle class="st24" cx="411.8" cy="413.5" r="5.3"/><circle class="st24" cx="455.5" cy="413.5" r="5.3"/><path class="st31" d="M467.6 409.8H407c-4.1 0-7.4-3.3-7.4-7.4v-96.1c0-4.1 3.3-7.4 7.4-7.4h60.6c4.1 0 7.4 3.3 7.4 7.4v96.1c0 4.1-3.3 7.4-7.4 7.4z"/><path class="st13" d="M456.5 332h-3.4v-69c0-1.8-1.5-3.3-3.3-3.3H419c-1.8 0-3.3 1.5-3.3 3.3v69h-3.4v-69c0-3.7 3-6.7 6.7-6.7h30.8c3.7 0 6.7 3 6.7 6.7v69z"/><path class="st13" d="M458.4 409.8h-60.6c-4.1 0-7.4-3.3-7.4-7.4v-96.1c0-4.1 3.3-7.4 7.4-7.4h60.6c4.1 0 7.4 3.3 7.4 7.4v96.1c0 4.1-3.3 7.4-7.4 7.4z"/><path class="st31" d="M404.9 397.8c-1.5 0-2.8-1.2-2.8-2.8v-81.3c0-1.5 1.2-2.8 2.8-2.8 1.5 0 2.8 1.2 2.8 2.8V395c0 1.6-1.2 2.8-2.8 2.8zM416.6 397.8c-1.5 0-2.8-1.2-2.8-2.8v-81.3c0-1.5 1.2-2.8 2.8-2.8 1.5 0 2.8 1.2 2.8 2.8V395c0 1.6-1.2 2.8-2.8 2.8zM428.3 397.8c-1.5 0-2.8-1.2-2.8-2.8v-81.3c0-1.5 1.2-2.8 2.8-2.8 1.5 0 2.8 1.2 2.8 2.8V395c0 1.6-1.2 2.8-2.8 2.8zM440.1 397.8c-1.5 0-2.8-1.2-2.8-2.8v-81.3c0-1.5 1.2-2.8 2.8-2.8 1.5 0 2.8 1.2 2.8 2.8V395c0 1.6-1.3 2.8-2.8 2.8zM451.8 397.8c-1.5 0-2.8-1.2-2.8-2.8v-81.3c0-1.5 1.2-2.8 2.8-2.8 1.5 0 2.8 1.2 2.8 2.8V395c0 1.6-1.3 2.8-2.8 2.8z"/><g><path class="st29" d="M420.3 173.5c8 2.4 35.3 32.6 35.8 39.3.6 7.8-15 36.7-17 40.6l-7.5-2.2s10.2-36 10-36.7c-.3-.8-17.2-17.3-20.7-21.1-6.8-7.3-.6-19.9-.6-19.9z"/><path d="M448.4 214.9c-1.9-.9-4-1.1-6-.5-.5.1-.3.9.2.7 1.8-.5 3.8-.4 5.5.5.4.1.7-.5.3-.7z" style="fill:#fcddd4"/><path class="st29" d="M431.6 251.2s-2.8 2.2-3.1 2.7c-.4.5-1.6 7.4-.8 8.1.8.7 10.6-1 11.1-1.6.5-.6.3-7.1.3-7.1l-7.5-2.1z"/></g></g></g></g><g><path class="st33" d="M402.7 123.4c.9.1 1.8.2 2.7.4 4.8 1 9.4 3.8 12 8 1.7 2.8 2.4 5.9 3.1 9.1 1.1 5.2 1.7 10.4 2.3 15.6.3 2.7.6 5.3.8 8 .1 1.3.3 2.6.4 3.9.1.8-.2 2.1.4 2.7-1.5-1.6-3.8-1.8-5.9-1.6-2.1.2-4.2.9-6.3.7-3.9-.3-7.2-3.3-11.1-3.7-6.3-.7-11.8 5.5-18.2 5.4.3-7.4-.9-14.7-1.1-22-.2-4.8-.1-9.9 1.3-14.5 2.6-8.3 11.5-12.6 19.6-12z"/><path class="st29" d="M385.9 150.1v.3c.7 3.9 2.2 6.3 4.3 8 1.5 1.3 2.8 2.1 3.9 2.9.1.1.2.1.3.2 2.3 1.6 3.6 3.3 3.6 8.9 1.8 4.5 8.7 5.1 10.9 0-.1-6.4 1.1-11.9 2.2-15.4.3-.9.5-1.7.8-2.4.4-1.2.7-1.9.7-1.9s-.3-14-2.3-17.7c-4.9-9-22.2-5.9-23.5 1.2-1.3 7.1-1.5 12.2-.9 15.9z"/><path class="st33" d="M384.6 138.2c4-.5 7.7-2.9 9.8-6.3 1.1 2.4 3 4.5 5.3 5.8 2.3 1.3 5.1 1.8 7.7 1.4.1 2 .8 3.9 2.1 5.5 1.3 1.5 3.1 2.6 5 3-.3-4.2-1.2-8.4-2.6-12.4-.8-2.4-1.9-4.8-3.9-6.5-1.7-1.5-4-2.2-6.3-2.4-2.3-.2-4.6.2-6.8.5-2 .3-4 .8-5.7 1.8-3.3 1.9-5.1 5.9-4.6 9.6z"/><path class="st27" d="M392.7 149.8c-.1 0-.1 0-.1-.1-.3-.9 0-1.2.4-1.4.3-.1.7 0 1.1.2.1 0 .1.1 0 .2 0 .1-.1.1-.2 0-.4-.2-.7-.3-.9-.2-.3.1-.3.4-.2 1 0 .2 0 .3-.1.3z"/><path class="st28" d="M396.4 151.2c-.3-.6-1.4-.1-2.5-.1-1.2 0-2.2-.5-2.5.1-.4.8.6 2.7 2.5 2.7s2.9-1.9 2.5-2.7z"/><path class="st27" d="M396.2 152.5c-.4 0-.8-.1-1.2-.1-1.4 0-2.6.3-3.1.7.5.4 1.1.8 1.9.8 1.2 0 2-.7 2.4-1.4z"/><path class="st3" d="M393.8 151.8c1.1 0 2-.3 2.3-.8-.5-.2-1.3.2-2.3.2-1 0-1.8-.3-2.3-.2.4.5 1.3.8 2.3.8z"/><g><path class="st3" d="M393.7 147.6c1.7 0 7.5 1.8 9.7 2.4 0 0 .1-.1.2-.1 2.7-.9 5.5-1.8 8.1-2.9.4-.1.8.2.9.5.1.4-.1.7-.5.9-2.6 1-5.3 2-8 2.8-.1 1.1-.2 3 .2 4.9 2.5-1.7 5-3.6 7.3-5.6.7-.6 1.7.4 1 1-2.5 2.2-5.1 4.2-7.8 6h-.1s-5.6 3.3-10.1 3.9c-.1-.1-.2-.1-.3-.2-1.1-.8-2.4-1.6-3.9-2.9-2.1-1.8-3.6-4.2-4.3-8 1.1-.5 5.8-2.7 7.6-2.7z"/><ellipse transform="rotate(-50.014 413.935 148.882)" class="st29" cx="413.9" cy="148.9" rx="4.2" ry="3.3"/><path class="st27" d="M415.6 146.6c-.6-.3-1.5-.3-2.2 0-.4.2-.7.4-.9.7-.3.4-.3.8-.2 1.2.1.3.4.5.6.7.2.1.3.3.4.4.1.2.1.6-.1.8-.2.2-.5.3-.8.2-.1-.1-.3 0-.4.1-.1.1 0 .3.1.4.2.1.3.1.5.1.3 0 .7-.1.9-.4.4-.4.4-1 .2-1.4-.1-.2-.4-.4-.5-.6-.2-.2-.4-.3-.4-.5-.1-.2 0-.4.1-.6.1-.1.1-.2.2-.2.3 0 .6.1.8.3.2.2.3.5.3.8 0 .2.1.3.2.3s.3-.1.3-.2c.1-.5-.1-1-.4-1.3-.1-.1-.3-.2-.4-.3.5-.1 1-.1 1.3.1.5.2.8.9.6 1.4-.1.1 0 .3.1.4.1.1.3 0 .4-.1.5-1 .1-1.9-.7-2.3z"/></g></g></g><g><ellipse class="st14" cx="237.9" cy="418.2" rx="74.6" ry="4.9"/><circle class="st24" cx="179.2" cy="414.8" r="4"/><circle cx="211.7" cy="414.8" r="4" style="fill:#5c2a9d"/><path class="st35" d="M220.7 412.1h-45c-3 0-5.5-2.5-5.5-5.5v-71.3c0-3 2.5-5.5 5.5-5.5h45c3 0 5.5 2.5 5.5 5.5v71.3c0 3-2.5 5.5-5.5 5.5z"/><path class="st12" d="M212.4 354.3h-2.5v-51.2c0-1.4-1.1-2.5-2.5-2.5h-22.8c-1.4 0-2.5 1.1-2.5 2.5v51.2h-2.5v-51.2c0-2.7 2.2-4.9 4.9-4.9h22.8c2.7 0 4.9 2.2 4.9 4.9v51.2z"/><path class="st22" d="M213.9 412.1h-45c-3 0-5.5-2.5-5.5-5.5v-71.3c0-3 2.5-5.5 5.5-5.5h45c3 0 5.5 2.5 5.5 5.5v71.3c0 3-2.5 5.5-5.5 5.5z"/><path class="st35" d="M174.1 403.2c-1.1 0-2.1-.9-2.1-2.1v-60.3c0-1.1.9-2.1 2.1-2.1 1.1 0 2.1.9 2.1 2.1v60.3c0 1.1-.9 2.1-2.1 2.1zM182.8 403.2c-1.1 0-2.1-.9-2.1-2.1v-60.3c0-1.1.9-2.1 2.1-2.1 1.1 0 2.1.9 2.1 2.1v60.3c0 1.1-.9 2.1-2.1 2.1zM191.5 403.2c-1.1 0-2.1-.9-2.1-2.1v-60.3c0-1.1.9-2.1 2.1-2.1 1.1 0 2.1.9 2.1 2.1v60.3c0 1.1-.9 2.1-2.1 2.1zM200.2 403.2c-1.1 0-2.1-.9-2.1-2.1v-60.3c0-1.1.9-2.1 2.1-2.1 1.1 0 2.1.9 2.1 2.1v60.3c0 1.1-.9 2.1-2.1 2.1zM208.9 403.2c-1.1 0-2.1-.9-2.1-2.1v-60.3c0-1.1.9-2.1 2.1-2.1 1.1 0 2.1.9 2.1 2.1v60.3c0 1.1-.9 2.1-2.1 2.1z"/><g><path class="st17" d="M219.2 406.5s-13.3 5.5-18.9 6.4-5.5 5.8-5.5 5.8 20.6.7 27.5-2.2l1.2 2.2s8.5.1 8.6 0c0-.1 1-6.7-1.5-12.2h-11.4z"/><path class="st4" d="M230.1 265.6s-14.3 69.3-11.1 140.9c0 0 .7 1.5 11.4 0 0 0 11.8-96.4 26.8-141.3l-27.1.4z"/><g><path class="st17" d="M276.8 406.5s13.3 5.5 18.9 6.4 5.5 5.8 5.5 5.8-20.6.7-27.5-2.2l-1.2 2.2s-8.5.1-8.6 0c0-.1-1-6.7 1.5-12.2h11.4z"/><path class="st4" d="M281 265.6s.8 69-4.2 140.9c0 0-.7 1.5-11.4 0 0 0-6.1-94.5-11.6-141.3l27.2.4z"/></g></g><g><path class="st35" d="m225 319.6 66.2 16.7c2.8.7 5.6-1.3 6.2-4.4 2.2-11.8 3.4-38.7-28.5-46.8-31.8-8-43.6 16.2-47.3 27.6-.9 3 .7 6.2 3.4 6.9z"/><path class="st35" d="M283.3 272.3c-6.9-4.9-16.1-4.4-22.6 1-3.5 2.9-5.9 6.7-8.1 10.6-1.3 2.4 2.5 4.5 3.8 2 3-5.5 7-11.3 13.7-12.6 6.2-1.2 12.7 2.2 15.3 8 1.4 3.3 1.6 7.2.3 10.6-.4 1.1-.2 2.3.9 2.9.9.5 2.5.2 2.9-.9 3-7.7.7-16.7-6.2-21.6z"/><path class="st22" d="m233.2 321.6 66.2 16.7c2.8.7 5.6-1.3 6.2-4.4 2.2-11.8 3.4-38.7-28.5-46.8-31.8-8-43.6 16.2-47.3 27.6-.9 3.1.7 6.2 3.4 6.9z"/></g><g><path class="st36" d="M197 151.7c1.2-.4 2.5 4 2.5 4s-2.4-9.8-.9-10.2c1.5-.4 3.3 9.2 3.3 9.2s-2.2-11.7-.6-12.1c1.6-.3 3.5 11.6 3.5 11.6s-.5-9.4 1.2-9.5c2.3-.2 1.8 20.1 1.8 20.1l-7.8 1c-.2.1-4.2-13.6-3-14.1z"/><path class="st36" d="M207.7 164.8s5.7-7.9 4.8-9.5c-.9-1.7-6.1 3.8-6.1 3.8l1.3 5.7z"/><path class="st12" d="M238.4 173.9c-7.3 2.1-20.5 24.8-21.2 24.8-.8 0-2.2-29.2-9.5-33.8-1.7-1.1-7.2-.9-7.9 1-4.5 12.7 2.1 53.6 14.7 53.6 9.1 0 26-24.7 26-24.7l-2.1-20.9z"/><path class="st3" d="M282.4 267.1s-1.9.6-5 1.4c-.5.1-1.1.3-1.7.4-11.3 2.7-34.3 6.9-46.5-.8-.3-.2-.5-.3-.7-.5 0 0 .1-.8.2-2.3.1-.9.2-2 .3-3.4.2-1.6.3-3.6.5-5.7.1-1.1.2-2.2.3-3.4.2-1.8.4-3.7.6-5.7.1-1.1.2-2.2.3-3.4.2-1.8.4-3.8.6-5.7 0-.3.1-.7.1-1.1.1-.8.1-1.5.2-2.3l.6-5.7c.1-1.1.2-2.2.3-3.4.2-1.9.4-3.8.6-5.8l.3-3.3c.1-.5.1-1 .2-1.5.1-1.4.3-2.8.4-4.2.1-.5.1-1 .2-1.4.1-.6.1-1.3.2-1.9v-.1l.3-2.7c.1-.7.1-1.4.2-2 0-.3.1-.6.1-1 .1-.6.1-1.1.2-1.7.1-.5.1-1 .2-1.4V197.9l.3-2.7c.1-.7.1-1.3.2-2 0-.3.1-.5.1-.8.1-1.1.3-2.3.4-3.3.2-2 .5-4 .7-5.8.1-1.2.3-2.3.4-3.3.3-2.1.5-4.1.8-5.8 0-.1 0-.3.1-.4l1.5-.5.8-.3 5-1.6 2.1-.7.3-.1 1.9-.6h11.3l.8.3 1.8.6 1.3.4 6.1 2h.1l1.5.5v.2c.1.6.3 2.6.8 5.7.1 1 .3 2.1.4 3.4.2 1.7.5 3.6.7 5.7.1.8.2 1.7.3 2.5 0 .3.1.6.1.8.1.7.2 1.5.3 2.3l.3 2.1c.1.4.1.9.2 1.3.1.5.1.9.2 1.4.1.6.2 1.3.3 1.9v.1l.3 2.7c.1.7.2 1.3.2 2 0 .3.1.6.1.9.1.6.2 1.3.2 1.9.1.5.1.9.2 1.4 0 .2 0 .3.1.5.2 1.7.4 3.5.6 5.2.1 1.1.3 2.2.4 3.4l.6 5.7c.1 1.1.3 2.2.4 3.4l.6 5.7c.1 1.1.2 2.3.3 3.4.2 1.9.4 3.9.6 5.7.1 1.1.2 2.3.3 3.4.2 2 .3 3.9.5 5.7.1 1.2.2 2.3.2 3.4.1 2.1.3 4 .3 5.7.1 1.2.1 2.4.1 3.4v.3c-.1 1-.1 1.5-.1 2.1z"/><path transform="rotate(.992 253.454 199.577) scale(1.00005)" class="st22" d="M238.4 194.8h30.1v9.7h-30.1z"/><path transform="rotate(.992 253.325 207.26) scale(1.00005)" class="st22" d="M238.2 205.3h30.1v3.9h-30.1z"/><g><path class="st36" d="M272.8 266.8s-3.3 1.9-3.5 2.4c-.2.5-.5 5.7.2 6.2.7.6 8.7.3 9.8-.3 1.1-.7 1.9-5.5 1.9-5.5l-8.4-2.8z"/><path class="st12" d="M272.8 173.9c7.4 3.1 26.5 41.7 26.4 48.3-.1 6.6-7.1 41.1-18.1 47.4-1.9 1.1-7.7-.6-8.3-2.7-2.9-11.5 11.1-41.9 10.5-45-.6-3.1-7.8-17.2-7.8-17.2l-2.7-30.8z"/></g><path class="st12" d="M262 170.3s-2.9 85.6-1 87.1 24.9-1.5 24.8-4.1c-.1-2.6-13-79.4-13-79.4l-10.8-3.6zM248.7 170.5s-2.4 86.4-3.3 87.3c-.9.9-16.6-1.6-17.4-2-.8-.4 10.2-81.9 10.2-81.9l10.5-3.4z"/><g><path class="st37" d="M279 211.7c-1-2.8-2.2-5.5-3.5-8.2 0-.1-.1-.2-.2-.3-.6-1.1-1.2-2.3-1.9-3.4-.3-.5-1 0-.7.4.5.9 1 1.8 1.5 2.6-.7-.2-1.4-.4-2-.6-.2-.1-.5.1-.5.3-.1.2.1.5.3.5.9.3 1.8.5 2.8.7 1.3 2.6 2.5 5.3 3.5 8 .1.7.9.5.7 0zM235.5 190.6c-.7 3.6-1.2 7.3-1.6 10.9-.1.6.8.5.9 0 .4-3.6.9-7.2 1.6-10.7.1-.5-.8-.7-.9-.2z"/></g></g><g><path d="M270.9 136.1c.2-1.8.2-3.8-.7-5.4-.8-1.6-2.7-2.9-4.5-2.5-.3-1.5-1.2-2.9-2.5-3.8-1.3-.8-3-1.1-4.5-.7-1.9-2.2-4.1-4.4-6.7-5.7-2.6-1.3-5.9-1.8-8.6-.6-2.7 1.2-4.6 4.3-4 7.2-1.3-.3-2.7.3-3.5 1.3-.8 1-1.2 2.4-1.3 3.7-.2 2.8.7 5.6 1.7 8.3.9 2.6 1.8 5.2 3.5 7.3 1.7 2 4.1 3.4 6.5 4.2 2.5.9 5.1 1.3 7.7 1.7 2.9.5 5.9.9 8.8 1.4 4.6-4.2 7.5-10.1 8.1-16.4z"/><path d="M270.9 136.1c.2-1.8.2-3.8-.7-5.4-.8-1.6-2.7-2.9-4.5-2.5-.3-1.5-1.2-2.9-2.5-3.8-1.3-.8-3-1.1-4.5-.7-1.9-2.2-4.1-4.4-6.7-5.7-2.6-1.3-5.9-1.8-8.6-.6-2.7 1.2-4.6 4.3-4 7.2-1.3-.3-2.7.3-3.5 1.3-.8 1-1.2 2.4-1.3 3.7-.2 2.8.7 5.6 1.7 8.3.9 2.6 1.8 5.2 3.5 7.3 1.7 2 4.1 3.4 6.5 4.2 2.5.9 5.1 1.3 7.7 1.7 2.9.5 5.9.9 8.8 1.4 4.6-4.2 7.5-10.1 8.1-16.4z"/><path class="st36" d="M261.1 170.5c-2.3 5.2-9.2 4.6-11.1 0 0-4.9-1-6.8-2.8-8.4-.2-.1-.4-.3-.5-.4-1.3-1-2.8-1.8-4.6-3.4-2.2-1.9-3.8-4.4-4.5-8.7v-.1c-.5-3.8-.3-8.8 1-15.9 1.4-7.3 18.9-10.4 23.9-1.2 2.1 3.8 2.3 18 2.3 18s-3.8 8.7-3.7 20.1z"/><path d="M253.4 135.1c.8 1.7 2.6 2.8 4.4 2.7.7 3.6 3 6.9 6.2 8.7.5.3 1.1.5 1.7.3.5-.2.8-.6 1-1.1 2.2-4.3 1.2-9.9-1.8-13.7-3.1-3.8-7.9-5.9-12.8-6.2-3.2-.2-6.4.2-9.2 1.7-1.5.8-2.8 1.8-3.9 3.1-.8.9-2.4 2.8-1.8 4.1.3.7 1.2.9 1.9 1.1.9.3 1.8.5 2.7.7 1.8.3 3.7.4 5.6.2 2-.2 4.1-.7 6-1.6z"/><path class="st27" d="M245.9 152.9c-.6 0-1.3-.1-1.9-.5-.3-.2-.4-.5-.2-.8.2-.3.5-.4.8-.2 1.5.8 3.2 0 3.6-.7.2-.3.6-.3.8-.1.3.2.3.6.1.8-.5.8-1.8 1.5-3.2 1.5z"/><path class="st38" d="M244.5 149.6c-.1 0-.1 0-.1-.1-.3-1 0-1.3.4-1.4.3-.1.7 0 1.2.3.1 0 .1.1 0 .2 0 .1-.1.1-.2 0-.4-.2-.7-.3-.9-.2-.3.1-.3.4-.2 1 0 .1-.1.1-.2.2z"/><path class="st3" d="M264.3 148c.4-.1.8-.5.7-1-.1-.4-.6-.8-1-.7-3.1.9-6.2 1.9-9.2 3.1-1.7-.4-8.1-2-9.7-2-1.3 0-5.5 1.4-7.5 2.1v.1c.6 4.2 2.3 6.8 4.5 8.7 1.8 1.5 3.4 2.4 4.6 3.4.2.1.4.3.5.4 5.2-.8 8.2-5.1 8.6-5.7.1 0 .2-.1.2-.1 2.6-2 5.3-3.9 8-5.6.4-.2.6-.7.4-1.2-.2-.4-.8-.6-1.2-.4-2.7 1.7-5.3 3.5-7.8 5.4-.2-1.3-.3-2.5-.3-3.4 3.1-1.1 6.1-2.2 9.2-3.1z"/><g><ellipse transform="rotate(-50.014 266.177 148.618)" class="st36" cx="266.2" cy="148.6" rx="4.2" ry="3.4"/><path class="st38" d="M267.9 146.2c-.6-.3-1.5-.3-2.3 0-.4.2-.7.4-.9.7-.3.4-.3.8-.2 1.2.1.3.4.5.6.7.2.1.3.3.4.4.1.2.1.6-.1.8-.2.2-.5.3-.8.2-.1-.1-.3 0-.4.1-.1.1 0 .3.1.4.2.1.3.1.5.1.3 0 .7-.1.9-.4.4-.4.4-1 .2-1.5-.1-.2-.4-.4-.6-.6-.2-.2-.4-.3-.4-.5-.1-.2 0-.4.1-.6.1-.1.1-.2.2-.2.3 0 .7.1.8.3.2.2.3.6.3.9 0 .2.1.3.2.3s.3-.1.3-.2c.1-.5-.1-1-.4-1.4-.1-.1-.3-.2-.4-.3.5-.1 1-.1 1.3.1.5.2.8.9.6 1.4-.1.1 0 .3.1.4.1.1.3 0 .4-.1.7-.8.3-1.7-.5-2.2z"/></g></g></g></g></switch></svg>