<svg version="1.1" id="Capa_1" xmlns="http://www.w3.org/2000/svg" x="0" y="0" viewBox="0 0 512 512" style="enable-background:new 0 0 512 512" xml:space="preserve"><style>.st2{fill:#99989d}.st3{fill:#fff}.st4{fill:#263238}.st12{fill:#da9500}.st13{fill:#be0811}.st17{fill:#211915}.st21{fill:#868589}.st23{fill:#717175}.st39{fill:#c2c3c8}.st46{opacity:.26;fill:#fff}</style><switch><g><ellipse transform="rotate(-87.486 263.54 255.39) scale(.99996)" cx="263.5" cy="255.4" rx="190.9" ry="206.1" style="fill:#ecedef"/><path d="M108.1 128.9c-4.5 7.3-8 15.4-7.4 24 .8 9.9 5.8 19.1 6 29 .4 16.8-12.5 30.9-16.6 47.2-4.5 18.2 12.5 39 19.3 49.2 6.8 10.2 3.9-8.3 8-15.4 4.1-7.2 13 30.2 26.9 38.4 7.4 4.4 16.2 7.3 21.5 14.1 7.8 9.9 5.6 24 4.5 36.6s.6 27.9 11.9 33.4c6.7 3.3 15.1 2.2 21.1 6.5 10.6 7.7 5.5 24.4 9.7 36.7 4.5 13.4 13.6 13.6 27.5 16.5 14 2.8-1.8-27.8 4.8-38.5 3.4-5.6 8.7-10.1 11.4-16.1 3.8-8.3 2.7-19.5 10-25 5.5-4.1 13.1-3 19.9-3.1s15.2-3 16-9.8c.7-6-5.4-10.9-11.3-12.3-5.9-1.4-12.2-.7-18-2.5-16.6-5.1-24.4-28.4-41.8-29.5-14.8-.9-27.3 15.7-41.9 12.8-8.1-1.6-13.7-8.8-19.7-14.5-7.8-7.3-17.4-12.8-23.5-21.5-6.2-8.7-7.2-22.6 1.6-28.7 6.5-4.5 15.8-2.7 22.2 1.9 6.4 4.6 10.8 11.5 15.5 17.8 1.5 2 3.1 4 5.4 4.7 6.3 2 10.9-6.9 9.4-13.3s-6-12-6.2-18.6c-.4-11.6 12.1-18.9 23-22.8 10.9-3.8 23.8-8.4 27.1-19.5 1.1-3.9.8-8.3 2.6-12 5.7-12.3 36.1-18.4 28.8-25.6-7.3-7.1-30.3-8.7-34.7-23-1.6-5.1-3.3-11.9-8.6-12.4-8.7-.8-13.7 10-21 11.9-3.5.9-3.8 6.8-3.7 14 .1 5.3-4.1 9.6-9.4 9.7-5.3.1-9.6-4.1-9.7-9.4 0-2 .3-3.9 1.1-5.9 1.4-3.5 4.1-6.2 6.8-8.8 11.3-10.8 44.9-22.6 37.8-27.2-7-4.6-40.8-17.2-45.9-10.2-5 7 3.3 1.1 5.3 9.3s-25 7.2-37.5 10.7c-2.1.6-4.4 1.2-6.3.2-2.2-1-3.1-3.6-4.2-5.7-6.3-11.2-27.1-3.9-27.1-3.9s-6.6 4.1-10.6 10.6z" style="fill:#d7d8dc"/><path class="st39" d="M202.5 78c-3 5.7 6 5.6 6.9 11.9 8.1.9 11.5-11.9 19.5-13.4 4.5-.8 8.9 2.4 11.4 6.3s3.6 8.5 5.7 12.6c4.7 9.2 14.3 15.7 24.6 16.5 2.2.2 4.7 0 6.4-1.4 4.9-4.3-2.1-12.4-.3-18.7 2.1-7.2 12.4-6.1 19.4-8.7 1.9-.7 16.7-4.7 17-6.7.4-3.6-6.4-5.9-14.1-7.9-13-3.3-35.9-3.2-47.1-2.2-15 1.4-39.8.3-49.4 11.7z"/><path class="st39" d="M450.8 321.3c3.4-21.1 3.1-42.8-.8-63.9-1-5.6-3.5-12.3-9.1-13.1-6.5-.9-14.5 6.6-18.6 1.4-1.8-2.3-1.1-5.6-.1-8.3 2.7-7.2 6.9-13.8 12.3-19.3 3.3-3.4 7.2-6.4 9.8-10.4 5.5-8.6 1.6-21.2-6.2-27.7-7.8-6.6-17.9 5.2-26.1.5-8.2-4.7-8.5-16.1-10-25.4-1.1-6.9-6.2-25.6-11.8-16.5-5.6 9.1 7.5 45.4 22.3 62.8 1.8 2.1 3.7 4.4 3.6 7.2-.4 6.6-9.9 6.3-16.3 7.6-8 1.7-20.2-2.6-13.4 11.3 3.6 7.3 20.5 17.3 16 22.2-4.6 4.9-18.6 19.1-25.1 30.5-6.6 11.5-9.8 25.7-4.8 38s19.9 20.7 32 15.6c5.7-2.4 11.9-7.4 17.2-4.2 4.8 2.9 4.1 9.9 3.8 15.5-.2 5.6 3 13 8.4 11.7 1.8-.4 3.2-1.8 4.4-3.2 7.5-9 10.7-20.8 12.5-32.3z" style="opacity:.54"/><ellipse cx="252.4" cy="241.6" rx="161.7" ry="152.8" style="opacity:.18;fill:#fff"/><g style="opacity:.68"><path class="st3" d="M321 258.7c0 33.7-2.3 67.4-8.2 100.6-1.5 8.3-3.2 16.5-5.3 24.7-2.1 8.2-4.5 16.3-7.4 24.2-1.5 4-3.1 7.9-4.9 11.7-1.8 3.8-3.8 7.6-6.2 11.1-2.3 3.5-5 6.9-8.3 9.7-1.6 1.4-3.4 2.6-5.4 3.5-2 .9-4.1 1.4-6.3 1.5-2.2.1-4.4-.4-6.4-1.2-2-.8-3.9-2-5.5-3.3-3.4-2.7-6.1-6-8.5-9.5-2.4-3.5-4.4-7.2-6.3-11-1.8-3.8-3.5-7.7-4.9-11.7-3-7.9-5.4-16-7.5-24.2-2.1-8.2-3.8-16.4-5.3-24.7-3-16.6-5.1-33.3-6.4-50.1-1.4-16.8-2-33.6-2.1-50.5 0-8.4.2-16.8.5-25.2.3-8.4.8-16.8 1.4-25.2 1.2-16.8 3.1-33.5 5.8-50.2 1.4-8.3 3-16.6 4.9-24.8 1.9-8.2 4.2-16.3 7-24.3 1.4-4 2.9-7.9 4.7-11.7 1.8-3.8 3.7-7.6 6-11.1s5-6.9 8.3-9.6c1.7-1.3 3.5-2.5 5.5-3.3 2-.8 4.1-1.2 6.3-1.1 2.1.1 4.3.6 6.2 1.5 2 .9 3.8 2 5.4 3.4 3.3 2.7 6 6 8.5 9.4 2.4 3.5 4.5 7.1 6.4 10.9 1.9 3.8 3.6 7.6 5.2 11.5 3.1 7.8 5.7 15.9 7.9 24s4.1 16.3 5.8 24.6c6.4 33 9 66.7 9.1 100.4zm-1.9 0c0-16.8-.6-33.6-2-50.3-1.4-16.7-3.5-33.4-6.6-49.9-1.6-8.2-3.4-16.4-5.5-24.5-2.2-8.1-4.7-16.1-7.7-23.9-1.5-3.9-3.2-7.8-5-11.5-1.9-3.8-3.9-7.4-6.3-10.9-2.4-3.4-5-6.7-8.2-9.4-1.6-1.3-3.3-2.5-5.2-3.3-1.9-.8-3.9-1.4-6-1.5-2.1-.1-4.1.3-6 1.1-1.9.8-3.7 1.9-5.3 3.2-3.2 2.7-5.8 6-8 9.5s-4.2 7.3-5.9 11.1c-1.7 3.8-3.2 7.7-4.6 11.7-2.7 7.9-4.9 16-6.8 24.2-1.9 8.2-3.4 16.4-4.7 24.7-2.6 16.6-4.3 33.3-5.4 50.1-1.1 16.8-1.5 33.5-1.5 50.3 0 16.8.5 33.6 1.8 50.3 1.3 16.7 3.2 33.4 6.1 50 1.5 8.3 3.1 16.5 5.2 24.6 2 8.1 4.4 16.2 7.3 24 1.5 3.9 3 7.8 4.8 11.6 1.8 3.8 3.8 7.5 6.1 10.9 2.3 3.4 5 6.7 8.2 9.3 1.6 1.3 3.3 2.4 5.2 3.2 1.9.8 3.9 1.2 5.9 1.1 2-.1 4-.6 5.9-1.4 1.9-.9 3.6-2 5.1-3.4 3.1-2.7 5.7-6 8-9.5s4.2-7.2 6-11c1.8-3.8 3.3-7.7 4.8-11.6 2.9-7.9 5.2-15.9 7.2-24.1 2-8.1 3.7-16.4 5.1-24.6 2.9-16.5 4.8-33.2 6.1-50 1.3-16.6 1.9-33.3 1.9-50.1z"/><path class="st3" d="M405.9 258.7c0 10.8-.7 21.7-2.2 32.4-1.4 10.7-3.6 21.4-6.5 31.8-5.9 20.8-14.7 40.9-26.8 58.9-6 9-12.9 17.5-20.5 25.1-7.6 7.7-16.1 14.6-25.3 20.3-9.2 5.8-19.1 10.4-29.4 13.5-10.4 3.1-21.2 4.7-32 4.7s-21.7-1.6-32.1-4.7c-10.4-3.1-20.3-7.8-29.5-13.5-9.2-5.8-17.6-12.6-25.3-20.3-7.7-7.7-14.5-16.1-20.5-25.1-12.1-18-21-38.1-26.8-58.9-2.9-10.4-5.1-21.1-6.5-31.8-1.4-10.7-2.1-21.6-2.2-32.4 0-10.8.7-21.7 2.2-32.4 1.5-10.7 3.6-21.4 6.6-31.8 5.9-20.8 14.8-40.9 26.9-58.9 6-9 12.9-17.4 20.5-25.1 7.6-7.7 16.1-14.5 25.3-20.3 9.2-5.7 19.1-10.3 29.4-13.5 10.4-3.1 21.2-4.7 32-4.7s21.6 1.6 32 4.7c10.4 3.1 20.3 7.7 29.4 13.5 9.2 5.8 17.6 12.6 25.2 20.3 7.6 7.7 14.5 16.1 20.5 25.1 12.1 18 20.9 38.1 26.8 58.9 2.9 10.4 5.1 21.1 6.5 31.8 1.6 10.7 2.3 21.5 2.3 32.4zm-2.2 0c0-10.7-.7-21.5-2.1-32.1-1.4-10.6-3.5-21.2-6.3-31.5-5.7-20.7-14.3-40.7-26.1-58.6-5.9-9-12.6-17.4-20.1-25.1-7.5-7.7-15.8-14.6-24.9-20.3-9.1-5.7-18.9-10.4-29.2-13.5-10.3-3.1-21-4.7-31.8-4.7-10.7 0-21.5 1.7-31.8 4.8-10.3 3.1-20.1 7.8-29.1 13.5-9.1 5.8-17.4 12.7-24.9 20.4-7.5 7.7-14.2 16.1-20.1 25.1-11.8 17.9-20.4 37.9-26.1 58.6-5.7 20.7-8.4 42.2-8.4 63.6 0 21.5 2.8 42.9 8.4 63.6 5.7 20.7 14.3 40.6 26.1 58.6 5.9 9 12.6 17.4 20.1 25.1 7.5 7.7 15.8 14.6 24.9 20.3 9.1 5.7 18.9 10.3 29.1 13.5 10.3 3.1 21 4.8 31.7 4.8s21.5-1.7 31.7-4.8c10.3-3.1 20.1-7.7 29.1-13.5 9.1-5.7 17.4-12.7 24.9-20.3 7.5-7.7 14.2-16.1 20.1-25.1 11.8-17.9 20.4-37.9 26.1-58.6 2.9-10.3 5-20.9 6.4-31.5 1.6-10.9 2.3-21.6 2.3-32.3z"/><path class="st3" d="m96.3 184.7 42.9-.3 42.9-.2 85.9-.1 85.9.1 42.9.2 42.9.3c.1 0 .1 0 .1.1s0 .1-.1.1l-42.9.3-42.9.2-85.9.1-85.9-.1-42.9-.2-42.9-.2c-.1 0-.1-.1-.1-.1 0-.1 0-.2.1-.2zM146.1 112.8l30.5-.3 30.5-.2c10.2-.1 20.3-.1 30.5-.1h30.5l61 .1 30.5.2 30.5.3c.1 0 .1 0 .1.1s0 .1-.1.1l-30.5.3-30.5.2-61 .1h-30.5c-10.2 0-20.3 0-30.5-.1l-30.5-.2-30.5-.3c-.1 0-.1-.1-.1-.1 0-.1.1-.1.1-.1zM81.4 256.6l46.7-.3 46.7-.2 93.4-.1 93.4.1 46.7.2 46.7.3c.1 0 .1 0 .1.1s0 .1-.1.1l-46.7.3-46.7.2-93.4.1-93.4-.1-46.7-.2-46.7-.3c-.1 0-.1-.1-.1-.1s0-.1.1-.1zM96.3 328.6l42.9-.3 42.9-.2 85.9-.1 85.9.1 42.9.2 42.9.3c.1 0 .1 0 .1.1s0 .1-.1.1l-42.9.3-42.9.2-85.9.1-85.9-.1-42.9-.2-42.9-.3c-.1 0-.1-.1-.1-.1 0-.1 0-.1.1-.1zM396.2 401.2H152.3c-.3 0-.5-.2-.5-.5s.2-.5.5-.5h243.9c.3 0 .5.2.5.5s-.2.5-.5.5z"/></g><g><path class="st3" d="M268.3 224c-29.2-5.3-57.3-17.1-79.2-33.6l1.9-1.1c26.1 19.8 61.3 32.7 96.5 35.4 35.2 2.7 70.3-4.7 96.2-20.4 11.4-6.9 20.3-14.8 26.5-23.6l2.5 1c-6.3 9-15.4 17.1-27 24.1-26.4 16-62.2 23.6-98.1 20.8-6.4-.6-12.9-1.4-19.3-2.6zM410.4 238.3c-5.3-8.9-8.2-17.3-8.6-25.2-1-19.8 14.3-29.2 14.5-29.3l.9 1.5c-.1.1-15 9.2-14 28.2.7 12.9 8.3 27.4 22.7 43.2l-.8 1.1c-6-6.7-11-13.2-14.7-19.5zM181.4 187.2c-1.1.4-2.1.4-3-.1l.9-1.1c1.7.8 4.3-1.6 4.8-2 11.2-10.7 19.2-22.6 23.2-34.4 4.4-13 3.9-26-1.5-36.6l1.4-.6c5.5 10.8 6.1 24.1 1.6 37.4-4.1 12-12.2 24.1-23.6 35-1.3 1.2-2.6 2-3.8 2.4zM387 324l-1.7-.2c.3-6.2 2.7-12 5.3-17.2 6.8-13.7 15.3-26.4 25.3-37.6 3.8-4.2 8-8.5 13.3-11.1l.8 1.6c-5 2.5-9.1 6.7-12.8 10.8-9.9 11.1-18.3 23.6-25 37.2-2.6 5.1-5 10.6-5.2 16.5z"/><circle class="st13" cx="183.8" cy="183.3" r="12.6"/><circle class="st13" cx="412.7" cy="185.9" r="12.6"/><circle class="st13" cx="200.7" cy="112.8" r="12.6"/><circle class="st13" cx="388.8" cy="324.9" r="12.6"/><circle class="st13" cx="429.8" cy="256.8" r="12.6"/></g><g><linearGradient id="SVGID_1_" gradientUnits="userSpaceOnUse" x1="82.603" y1="104.21" x2="164.888" y2="132.585" gradientTransform="rotate(6.28 -1251.946 1737.068)"><stop offset="0" style="stop-color:#8a2f2a"/><stop offset="1" style="stop-color:#a6443f"/></linearGradient><path d="M322 271.8c-4.9-3.4-13.9 6-13.9 6s-23.5 1.3-30.7-1.3c-7.2-2.6-6.1-30.9-6.1-30.9s-22.8-11.3-20.4 25.2c2.1 31.7 56.4 13.2 56.4 13.2s13.6 2.1 17.3-.4 2.3-8.4-2.6-11.8z" style="fill:url(#SVGID_1_)"/><linearGradient id="SVGID_2_" gradientUnits="userSpaceOnUse" x1="87.665" y1="90.544" x2="169.593" y2="118.795" gradientTransform="rotate(6.28 -1251.946 1737.068)"><stop offset="0" style="stop-color:#8a2f2a"/><stop offset="1" style="stop-color:#a6443f"/></linearGradient><path d="M309.6 276.6s2.3-6.1 7.4-7c5.1-.9 4.9.1 4.1 1.4-.8 1.3-9.8 8.7-11.5 5.6z" style="fill:url(#SVGID_2_)"/><linearGradient id="SVGID_3_" gradientUnits="userSpaceOnUse" x1="358.692" y1="164.491" x2="335.977" y2="191.336"><stop offset="0" style="stop-color:#5153fa"/><stop offset="1" style="stop-color:#4344dc"/></linearGradient><path d="M277.5 276.5c-7.2-2.6-1.5-32.5-1.5-32.5s-26.5-9.7-25 26.9c.7 16.9 19.1 20 33.4 18.6.7-4.8.5-6.9 2.1-11.5-.9-.3-8.2-1.2-9-1.5z" style="fill:url(#SVGID_3_)"/><path class="st21" d="m293.2 262.8 2.8 31.4c.2 2.1 2 3.6 4.1 3.4l20.7-1.9c2.2-.2 3.8-2.3 3.3-4.5l-7.2-32.3c-.4-2-2.3-3.2-4.3-2.9l-16.3 2.8c-1.9.3-3.2 2-3.1 4z"/><circle transform="rotate(-59.409 307.917 271.49)" class="st46" cx="307.9" cy="271.5" r="5.3"/><path class="st46" d="M301.4 291.3c0-.3.2-.7.6-.7l15.4-1.6c.3 0 .7.2.7.6 0 .3-.2.7-.6.7l-15.4 1.6c-.4.1-.7-.2-.7-.6zM301 288.3c0-.3.2-.7.6-.7L317 286c.3 0 .7.2.7.6 0 .3-.2.7-.6.7l-15.4 1.6c-.3 0-.6-.2-.7-.6z"/><linearGradient id="SVGID_4_" gradientUnits="userSpaceOnUse" x1="154.227" y1="117.854" x2="204.136" y2="160.229" gradientTransform="rotate(6.28 -1251.946 1737.068)"><stop offset="0" style="stop-color:#8a2f2a"/><stop offset="1" style="stop-color:#a6443f"/></linearGradient><path d="M321.3 272s-5.7-1-6 2.7c-.3 3.6-1.2 8.7 1.8 9.3 3.1.6 8.8 1.8 9.7-2.9 1-4.7-4.8-10.7-5.5-9.1z" style="fill:url(#SVGID_4_)"/><linearGradient id="SVGID_5_" gradientUnits="userSpaceOnUse" x1="287.938" y1="173.037" x2="149.079" y2="326.553"><stop offset="0" style="stop-color:#c24940"/><stop offset="1" style="stop-color:#cc605b"/></linearGradient><path d="M256.3 216.8c-1.6 1.3-20.9 2.8-35.2 5.9-10.4 2.2-17.4 12-16.2 22.5l1.7 15.1c.2 1.9 2.2 3 3.9 2.2L251 244l5.3-27.2z" style="fill:url(#SVGID_5_)"/><linearGradient id="SVGID_6_" gradientUnits="userSpaceOnUse" x1="257.73" y1="228.903" x2="173.239" y2="380.44"><stop offset="0" style="stop-color:#e5908c"/><stop offset="1" style="stop-color:#df6f63"/></linearGradient><path d="M253.7 309.6h-28.1c-8.4 0-15.3-6.8-15.3-15.3v-47.8c0-12.5 10.1-22.6 22.6-22.6h20.7v85.7z" style="fill:url(#SVGID_6_)"/><g><linearGradient id="SVGID_7_" gradientUnits="userSpaceOnUse" x1="-5811.858" y1="-81.754" x2="-5787.595" y2="-365.333" gradientTransform="scale(-1 1) rotate(-41.071 -2202.563 -7383.936)"><stop offset="0" style="stop-color:#8a2f2a"/><stop offset="1" style="stop-color:#a6443f"/></linearGradient><path d="m230.9 367.8-4.6 7.5s-36.6 34.5-50.4 49c-2.2 2.3-3.6 5.2-4.1 8.3l-2.7 16.2-8-24.1 1.8-1.6 5.6-2.1 33.3-45.4c2-2.7 4.6-4.7 7.7-5.9l9-3.4 12.4 1.5z" style="fill:url(#SVGID_7_)"/><path class="st4" d="M172.7 412c.8 5.2 4.3 7.7 8.6 9.3l46.8-47.1 24.6-58.4 5.6-34.6-10.1-2.5c-22.9 4.4-25.9 48.8-30.8 88.1-14.6-.4-29.2 23-44.7 45.2z"/><path class="st17" d="M167.8 420.6s-11.4 1.8-8.6 10.3c2.8 8.5 7 24.2 12.5 21 5.5-3.1-.8-20.5 2-24.8-5.2-4.1-5.9-6.5-5.9-6.5z"/></g><g><linearGradient id="SVGID_8_" gradientUnits="userSpaceOnUse" x1="-4537.345" y1="527.368" x2="-4513.081" y2="243.788" gradientTransform="matrix(-1 0 0 1 -4274.731 0)"><stop offset="0" style="stop-color:#8a2f2a"/><stop offset="1" style="stop-color:#a6443f"/></linearGradient><path d="m259.8 364.5 1.5 8.7s-4.9 50.1-5.8 70.1c-.1 3.1.7 6.2 2.3 8.9l8.6 14-21.8-12.9-.4-2.7 3.6-4.9-4.7-56.1c-.3-3.3.4-6.6 2-9.5l4.5-8.5 10.2-7.1z" style="fill:url(#SVGID_8_)"/><path class="st4" d="M274.2 281.1c5 9.4-.5 36-12.6 90.6l-5.6 63c-3.5 2.9-7.2 3.9-11.1 2.9-3.6-31.4-4.9-54.1 3.6-67.1l2-52.2 7.7-35.8 16-1.4z"/><path class="st17" d="M246.1 447.8s-9.6 9.9-2.3 12.2c7.3 2.2 26.3 9.8 27.4 6.1 1.4-4.6-15.3-18.3-15.3-18.3-2.8 1.5-7.8 1.8-9.8 0z"/></g><path class="st12" d="M248.2 278.6c7.5-31.7-8.3-55.3-8.3-55.3 9-8.6 23-9.2 29.3-9 2.2.1 4.3.9 6 2.3 5 4.1 15.4 13.8 13.5 22.8-1.4 7-14.6 41.7-14.6 41.7s-12.1 5.8-25.9-2.5z"/><linearGradient id="SVGID_9_" gradientUnits="userSpaceOnUse" x1="268.905" y1="155.347" x2="263.226" y2="231.236"><stop offset="0" style="stop-color:#8a2f2a"/><stop offset="1" style="stop-color:#a6443f"/></linearGradient><path d="m262.3 191.4-6.1 25.3c-.6 2.4 1.6 3.2 4 3.5 5.7.8 10.1-1.3 10.8-5.4.1-.4.3-.7.3-1l2.6-18.9c.2-1.5-.6-3-2-3.6l-5-2.2c-1.8-.8-4.1.3-4.6 2.3z" style="fill:url(#SVGID_9_)"/><g><linearGradient id="SVGID_10_" gradientUnits="userSpaceOnUse" x1="261.876" y1="140.386" x2="271.513" y2="190.635"><stop offset="0" style="stop-color:#8a2f2a"/><stop offset="1" style="stop-color:#a6443f"/></linearGradient><path d="M268 170.9s8.6 2.3 15.6 13.3c7.1 11 3.7 16.9-1.4 18.3-5.1 1.4-12.8 2.4-22-4.1-9.1-6.4-3.3-30.1 7.8-27.5z" style="fill:url(#SVGID_10_)"/><path class="st17" d="M264.9 191.4s-8.4-16.3 6.7-18.5l3.9 2s-1.4-7.9-11.1-11.2c-9.7-3.3-17.2.2-19.4 13-2.2 12.8 1.1 20.5 8.4 25.5 7.3 5 9-2 9-2s-4.3-5-3.2-8.2c1-3.1 4.8 0 4.8 0l.9-.6z"/><path class="st17" d="M247.1 189.7s-29.4-9-34.2 21.6c-4.8 30.7-8.2 40.5-15.5 35.2 0 0 1.2 11.5 15.2 6.3 36.3-13.2 14.2-55.7 34.5-63.1z"/></g><g><path class="st12" d="M211.4 292.1c-8.5-36.2 28.5-68.9 28.5-68.9 8.8 2 11.1 7.8 8.7 16.3-17.4 16.3-23.9 34.8-25.3 50.4-2.3-.6-8-1.7-11.9 2.2z"/><linearGradient id="SVGID_11_" gradientUnits="userSpaceOnUse" x1="85.76" y1="293.541" x2="68.618" y2="326.507" gradientTransform="matrix(-1 0 0 1 302.973 0)"><stop offset="0" style="stop-color:#8a2f2a"/><stop offset="1" style="stop-color:#a6443f"/></linearGradient><path d="M223.4 290c-1.7 6.8-1.5 11.9-1.2 14.4.1.9.5 1.6 1.4 1.6.4 0 .9 0 1.3.1s.8.5.7.9c0 .2-.2.4-.2.6-.1.4.1.8.5 1 .3.2.7.3 1.1.5 1.5.5 3.1 1.5 4.5 2.2.4.2.5.8.4 1.2-.6 4.1-6.3 3.7-9.1 2.3-1.7-.9-3.2-2.3-4.2-3.8-4.2-6.5-6.4-12.8-7.2-18.8 3.9-4 9.6-2.9 12-2.2z" style="fill:url(#SVGID_11_)"/></g><linearGradient id="SVGID_12_" gradientUnits="userSpaceOnUse" x1="254.208" y1="223.048" x2="234.074" y2="293.774"><stop offset="0" style="stop-color:#c24940"/><stop offset="1" style="stop-color:#cc605b"/></linearGradient><path d="M243.5 220c13.7 21-2.7 62.1-6.9 63.7 18.8-3.8 25.8-38.1 15.3-67.2-3.1-.3-6.2.8-8.4 3.5z" style="fill:url(#SVGID_12_)"/></g><g><linearGradient id="SVGID_13_" gradientUnits="userSpaceOnUse" x1="2090.927" y1="-7170.752" x2="2169.076" y2="-7143.804" gradientTransform="rotate(89.868 -2590.732 -4414.549)"><stop offset="0" style="stop-color:#ecb9b8"/><stop offset="1" style="stop-color:#e5908c"/></linearGradient><path d="M176.3 325.2c1.6-3.2.2-7-2.5-9.9-1.9-2-2.9-4.6-2.7-7.4.6-12.5-5.3-51.1-11.2-55.8-10.2-8.2 2.7 60.4 5.6 62.4 3.2.9.7 14.5-.9 16.8-2.6 3.7 7.9 1.4 11.7-6.1z" style="fill:url(#SVGID_13_)"/><linearGradient id="SVGID_14_" gradientUnits="userSpaceOnUse" x1="155.888" y1="227.907" x2="171.307" y2="337.24"><stop offset="0" style="stop-color:#c24940"/><stop offset="1" style="stop-color:#cc605b"/></linearGradient><path d="M159.5 297c3.2-3.8 6.6-6.5 10.5-7.2.7-.1 1.2-.7 1.1-1.4L167 234l-18.3 14.9 10.8 48.1z" style="fill:url(#SVGID_14_)"/><path class="st21" d="m180.1 313.6-27.5 13.3c-1.8.9-2.6 3.1-1.7 4.9l8.9 18.1c1 2 3.4 2.6 5.2 1.4l26.8-17.6c1.6-1.1 2.1-3.2 1.1-4.9l-8.2-13.8c-.9-1.6-2.9-2.2-4.6-1.4z"/><circle transform="rotate(-80.224 177.264 329.848)" class="st46" cx="177.3" cy="329.9" r="5.1"/><path class="st46" d="M157 330.8c.3-.2.7 0 .8.3l6.7 13.4c.2.3 0 .7-.3.8-.3.2-.7 0-.8-.3l-6.7-13.4c-.1-.3 0-.7.3-.8zM159.6 329.4c.3-.2.7 0 .8.3l6.7 13.4c.2.3 0 .7-.3.8-.3.2-.7 0-.8-.3l-6.7-13.4c-.1-.2 0-.6.3-.8z"/><linearGradient id="SVGID_15_" gradientUnits="userSpaceOnUse" x1="2861.661" y1="-4119.06" x2="2946.384" y2="-4089.845" gradientTransform="scale(1 -1) rotate(-61.549 4716.018 105.28)"><stop offset="0" style="stop-color:#ecb9b8"/><stop offset="1" style="stop-color:#e5908c"/></linearGradient><path d="M166.7 313.2s-4.9 4.6-3.8 9.8c1.1 5.2 2 4.7 2.9 3.4.9-1.3 4.5-12.7.9-13.2z" style="fill:url(#SVGID_15_)"/><path class="st23" d="M129.6 315.4H93.5c-4.3 0-7.9-3.5-7.9-7.9-7.5-26.2-4-56.6 4.8-90.2 1.1-4.4 5.1-7.4 9.6-7.4h29.6v105.5z"/><path class="st23" d="M100.5 207.6c-5.8 0-10.9 3.9-12.4 9.5l-5.9 22.3c-1.3 4.9 2.5 9.7 8.6 10.8l11.1 2.1 35.7-49.8-37.1 5.1z"/><g><path class="st4" d="m157 303.3-34.3-1.2s-7.8 11.2-8 13.9c-.1 1.4-.2 2.8-.2 4.1l-6.2 56.7c-.2 1.8-.8 3.6-1.8 5.2l-23.4 40c-.8 1.3-2.8 3.6-1.8 4.8 1.1 1.4.9 3.9 3.5 5 1 .4 5.5-4.1 6.2-4.9l35-39.9c1.2-1.3 2-2.9 2.4-4.6l10-37.3c6.3 18.7 13.9 80.4 15.2 92.8.1 1.3.8 15.1 2.1 15.2 2.4.2 4.7-.5 6.7-.8 1.4-.2.9-10.6 1-12 4.9-76.4-6.4-137-6.4-137z"/><path class="st17" d="M81.2 425.2s-11.4 1.8-8.6 10.3c2.8 8.5 7 24.2 12.5 21 5.5-3.1-3-21.5 1.4-25.6-5.2-4.1-5.3-5.7-5.3-5.7zM155.2 452.1s-7.4 10.7 0 12.7 22.1 7.3 26.2 3.3c4.1-4-18.8-16.7-18.8-16.7-2.7 1.6-5.4 2.4-7.4.7z"/></g><g><path class="st13" d="M172.8 237.9c3.6-13.2-5-26.5-18.5-28.8-15-2.5-30.3-.1-37.9.4-3.8.2-7.4 1.9-10.1 4.6C95.7 225 72 255 95.7 288.2c3.4-1.6 8.2-4.3 11.6-7.4-2.3-8.2-2-18.4 4.7-30.5.1 1 .3 2 .6 3 6.6 26.4 5.7 48 5.4 53 0 .7.3 1.3.9 1.6 10.5 5 27.9 3.9 34.9 3.3 1.3-.1 4-.3 4.4-1.5 5.2-16.5 8.9-50.8 14.6-71.8z"/><linearGradient id="SVGID_16_" gradientUnits="userSpaceOnUse" x1="88.771" y1="199.243" x2="130.514" y2="262.212"><stop offset="0" style="stop-color:#c24940"/><stop offset="1" style="stop-color:#cc605b"/></linearGradient><path d="M112.5 247.8c-3-10.6-1.5-22.5-1.1-25.3 0-.3.4-.6.7-.5.3.1.5.4.5.7-.4 2.7-1.9 14.5 1 24.8.1.3-.1.6-.4.7-.3.1-.6-.1-.7-.4z" style="fill:url(#SVGID_16_)"/></g><g><linearGradient id="SVGID_17_" gradientUnits="userSpaceOnUse" x1="163.706" y1="231.566" x2="99.439" y2="321.394"><stop offset="0" style="stop-color:#ecb9b8"/><stop offset="1" style="stop-color:#e5908c"/></linearGradient><path d="M107.4 280.9c-3.4 3.2-8.2 5.8-11.6 7.4 4.5 6.3 10.8 12.8 19.2 19.3l1 2.7c.8 2 2.1 3.7 3.9 4.9l3.4 2.2c1.8 1.2 4.3 1.1 6-.4l1.5-1.3c1.3-1.2 1.5-3.2.4-4.6l-4.2-5.3c-.7-.9-5.9-1.7-6.9-2.4-3.8-2.6-9.2-10.2-12.7-22.5z" style="fill:url(#SVGID_17_)"/></g><linearGradient id="SVGID_18_" gradientUnits="userSpaceOnUse" x1="143.991" y1="170.77" x2="137.787" y2="422.399"><stop offset="0" style="stop-color:#ecb9b8"/><stop offset="1" style="stop-color:#e5908c"/></linearGradient><path d="m137.3 184.4-4.2 25.4c-.1.7.3 1.3 1 1.5 3.2.9 11.5 3.3 18.8-1.2l-2.2-20.7-13.4-5z" style="fill:url(#SVGID_18_)"/><g><linearGradient id="SVGID_19_" gradientUnits="userSpaceOnUse" x1="-1650.64" y1="-1128.897" x2="-1681.674" y2="-1087.841" gradientTransform="rotate(-46.73 750.847 -2559.55)"><stop offset="0" style="stop-color:#ecb9b8"/><stop offset="1" style="stop-color:#e5908c"/></linearGradient><path d="M150.5 165.1c.3.3 12.6 24.4 12.6 24.4l-13.9 6.7-15-21.1s11.3-14.7 16.3-10z" style="fill:url(#SVGID_19_)"/><path class="st17" d="M140.3 175.7c-.2.6-.2 1.4.2 1.9l6.9 11.6c.1.2.2.3.4.5.8.8 3.7 3 5.8 0 1.9-2.6 3.6-5 5.5-5.9 1.1-.6 2.4-.1 3 1 1.1 2.3 3.4 6.9 4.7 11.3.3 1.1-.2 2.3-1.3 2.7-2.8 1.1-8.4 3.2-13.3 3.9-.8.1-1.6-.2-2.1-.9-2.1-2.9-8.1-11-10.2-13.1-2.5-2.5-6-.3-8.9-1-.1 0-.3-.1-.4-.2-.1-.1-.1-.3-.1-.4-.1-.9 0-1.8.2-2.7.1-.3.1-.6.2-.9 0-.6-.3-1.2-.5-1.7-1.1-2.5-1.6-5.2-2.5-7.8-.1-.4-.2-.7-.2-1.1 0-.2.1-.5.2-.7.7-1.8 2.1-3.3 3.8-4.3 1.5-.8 4.3-.8 5-2.5.2-.6.9-.9 1.3-1.3.7-.7 1.2-1.5 1.8-2.3.7-.9 1.5-1.8 2.6-2 .7-.1 1.4.1 2 .2 1.1.3 2.3.6 3.2 1.3 1.2.9 2 2.3 2.6 3.7.3.7.6 1.4.5 2.1-.3 1.9-3.4 3-5.1 3.2-2.9.2-4.6 3.6-5.3 5.4z"/><linearGradient id="SVGID_20_" gradientUnits="userSpaceOnUse" x1="-1695.458" y1="-1096.715" x2="-1670.992" y2="-1121.817" gradientTransform="rotate(-46.73 750.847 -2559.55)"><stop offset="0" style="stop-color:#ecb9b8"/><stop offset="1" style="stop-color:#e5908c"/></linearGradient><path d="M143 192.2s-3.1-7.2-6.5-6.9c-3.4.3-6.1 3.7-1.9 7.5 5.3 4.8 8.4-.6 8.4-.6z" style="fill:url(#SVGID_20_)"/></g><path class="st23" d="M110.7 211.1c13.7 21 3 61.7-1.3 63.3 18.8-3.8 20.1-37.6 9.6-66.8-3-.2-6.2.8-8.3 3.5z"/><g><ellipse transform="rotate(-38.501 133.407 160.306)" class="st23" cx="133.4" cy="160.3" rx="2" ry="1.7"/><path class="st23" d="M129.8 183.5c-13.9-21.4 17.3-37.1 26.2-15.6-8.7 4-17.4 9.3-24.7 15.8-.6.4-1.2.3-1.5-.2z"/><path class="st23" d="M137.5 178.6c10.3-2.9 23-4.4 27.2-7.4 3.7-2.2 4.7-6.6 1.7-5.8l-11.2 2.7c-6.7 2-12.5 5.6-17.7 10.5z"/></g></g><g><path class="st21" d="m363.7 95.9-14.5-8.5c-.3-.2-.7-.2-1-.1l-18.4 4.3c-.5.1-.9.5-1 1-.1.5 0 1 .4 1.3l11.4 9.7 23.1-7.7z"/><path class="st2" d="M240.6 115.5s172-35.4 178.8-33.4c6.8 2 19 8.8 22.6 8.7 3.6-.1 16 1.8 13 10.7-3 9-145.6 39.8-162.4 34.5-16.8-5.3-59.3-15.1-59.3-15.1s-4.1-5.8 7.3-5.4z"/><path class="st2" d="m290.4 105.9-25.2-13.2c-1.6-.8-2.9-2.1-3.8-3.6l-10.5-17.9c-.8-1.4-2.5-2.1-4.1-1.7-5.1 1.2-15.8 3.9-15.8 5.1 0 1.6 6.2 41.6 6.2 41.6l53.2-10.3z"/><path class="st21" d="m242.4 121.2-1.9 8.5c-.3 1.4 0 2.9 1 4 .9 1.1 2.3 1.7 3.8 1.7l8.8-.2c1.4 0 2.7-.6 3.6-1.7l15.2-18.2-30.5 5.9z"/><path class="st23" d="M333.6 147.2s5.5 6.4 14.1 6.2c8.7-.2 19.3-2.8 21.2-5.9 1.9-3.1 5.7-25.8-11.8-22.2-17.5 3.7-37.8 14.4-23.5 21.9z"/><path class="st21" d="m323.2 124.1 40.9-8.2-33.5 45.1c-.5.6-1.2 1-2 1.1l-24.5 2.6c-1.1.1-2.1-.4-2.7-1.3-.6-.9-.6-2 0-3l21.8-36.3z"/><path class="st3" d="M366.7 148.2h.3c.5-.1 1.1-.7 1.6-1.7 1.6-3.4 2.6-10.7-.5-16.1-.9-1.6-2.6-2.6-4.4-2.7-1.5-.1-3.4.4-4 3.2-.9 4.3 3.5 14.1 5.9 16.6.3.4.7.6 1.1.7zm-2.5-19.7c1.3.2 2.5 1.1 3.2 2.3 2.9 5.1 2 12.2.5 15.4-.4.9-.8 1.3-1 1.3 0 0-.3 0-.8-.5-2.5-2.6-6.4-12.1-5.7-15.9.4-1.8 1.4-2.7 3.2-2.6.2-.1.4 0 .6 0z"/><path class="st21" d="m232.3 84.1 4.2-.1 4.6 27.1-4.5 1.1z"/><path class="st3" d="M303 115.3c0-1.4 1.1-2.6 2.5-2.6h.2c1.4 0 2.6 1.1 2.6 2.5v1.7c0 1.4-1.1 2.6-2.5 2.6h-.2c-1.4 0-2.6-1.1-2.6-2.5v-1.7zM312.7 114.3c0-1.4 1.1-2.6 2.5-2.6h.2c1.4 0 2.6 1.1 2.6 2.5v1.7c0 1.4-1.1 2.6-2.5 2.6h-.2c-1.4 0-2.6-1.1-2.6-2.5v-1.7zM322.4 111.8c0-1.4 1.1-2.6 2.5-2.6h.2c1.4 0 2.6 1.1 2.6 2.5v1.7c0 1.4-1.1 2.6-2.5 2.6h-.2c-1.4 0-2.6-1.1-2.6-2.5v-1.7zM331.4 110.2c0-1.4 1.1-2.6 2.5-2.6h.2c1.4 0 2.6 1.1 2.6 2.5v1.7c0 1.4-1.1 2.6-2.5 2.6h-.2c-1.4 0-2.6-1.1-2.6-2.5v-1.7zM341.8 108.4c0-1.4 1.1-2.6 2.5-2.6h.2c1.4 0 2.6 1.1 2.6 2.5v1.7c0 1.4-1.1 2.6-2.5 2.6h-.2c-1.4 0-2.6-1.1-2.6-2.5v-1.7zM351.5 106.7c0-1.4 1.1-2.6 2.5-2.6h.2c1.4 0 2.6 1.1 2.6 2.5v1.7c0 1.4-1.1 2.6-2.5 2.6h-.2c-1.4 0-2.6-1.1-2.6-2.5v-1.7zM361.2 104.3c0-1.4 1.1-2.6 2.5-2.6h.2c1.4 0 2.6 1.1 2.6 2.5v1.7c0 1.4-1.1 2.6-2.5 2.6h-.2c-1.4 0-2.6-1.1-2.6-2.5v-1.7zM370.2 103.3c0-1.4 1.1-2.6 2.5-2.6h.2c1.4 0 2.6 1.1 2.6 2.5v1.7c0 1.4-1.1 2.6-2.5 2.6h-.2c-1.4 0-2.6-1.1-2.6-2.5v-1.7zM379.9 101.6c0-1.4 1.1-2.6 2.5-2.6h.2c1.4 0 2.6 1.1 2.6 2.5v1.7c0 1.4-1.1 2.6-2.5 2.6h-.2c-1.4 0-2.6-1.1-2.6-2.5v-1.7zM389.6 99.1c0-1.4 1.1-2.6 2.5-2.6h.2c1.4 0 2.6 1.1 2.6 2.5v1.7c0 1.4-1.1 2.6-2.5 2.6h-.2c-1.4 0-2.6-1.1-2.6-2.5v-1.7zM398.5 98.2c0-1.4 1.1-2.6 2.5-2.6h.2c1.4 0 2.6 1.1 2.6 2.5v1.7c0 1.4-1.1 2.6-2.5 2.6h-.2c-1.4 0-2.6-1.1-2.6-2.5v-1.7zM431.6 87.2l-17 5.1c-1.3.4-2.1 1.6-1.9 2.9.2 1.6.5 3.3.8 3.2.6-.3 27.2-7.7 27.2-7.7l-9.1-3.5z"/></g></g></switch></svg>